<svg width="174" height="206" viewBox="0 0 174 206" fill="none" xmlns="http://www.w3.org/2000/svg">
<g clip-path="url(#clip0_7_679)">
<path opacity="0.15" d="M34.3448 94.2941C6.21093 147.371 49.6084 165.731 85.5476 181.827C121.487 197.923 141.361 167.026 158.489 131.752C175.618 96.4785 183.957 51.3908 149.684 41.1984C115.411 31.0062 62.4817 41.216 34.3448 94.2941Z" fill="#F5CED3"/>
<path opacity="0.2" d="M79.6644 194.505C115.659 210.624 138.153 174.348 158.103 133.265C178.054 92.1826 77.7972 158.231 41.8018 142.111C5.8063 125.991 43.6682 178.384 79.6644 194.505Z" fill="#F5CED3"/>
<path opacity="0.1" d="M119.557 153.151C159.039 155.509 165.785 125.933 168.322 93.7313C170.859 61.53 80.0738 150.791 119.557 153.151Z" fill="#F5CED3"/>
<path d="M110.118 159.992C111.942 160.706 113.16 163.648 112.422 165.414C111.684 167.181 109.271 167.099 107.446 166.385C106.595 166.026 105.921 165.359 105.57 164.527C105.218 163.694 105.217 162.762 105.565 161.928C105.914 161.095 106.585 160.426 107.435 160.064C108.286 159.702 109.248 159.676 110.118 159.992Z" fill="#373841"/>
<path d="M44.0275 105.463C45.8518 106.177 47.0694 109.119 46.3313 110.885C45.5931 112.652 43.1801 112.57 41.356 111.856C40.5052 111.496 39.8331 110.829 39.4825 109.998C39.1318 109.166 39.1303 108.234 39.4785 107.401C39.8264 106.568 40.4966 105.9 41.3462 105.537C42.1957 105.175 43.1577 105.149 44.0275 105.463Z" fill="#373841"/>
<path d="M60.3492 36.2293C59.376 36.2596 58.4332 36.5651 57.6371 37.1078C56.0037 38.1945 54.6409 40.0242 53.3899 42.1571C50.8864 46.4224 48.907 51.9737 47.638 55.2628C46.969 56.9951 46.6693 58.1444 47.1539 59.1882C47.2796 59.4405 47.459 59.6642 47.6802 59.8446C47.9015 60.0252 48.1596 60.1584 48.4377 60.2356C48.9436 60.3553 49.4699 60.3701 49.982 60.2792C52.0907 59.9928 54.87 58.7999 57.6675 58.322C60.8769 57.7734 62.6176 56.0854 63.4105 54.5397C63.8864 53.613 64.134 52.5922 64.1338 51.5573C64.1222 51.3102 64.0096 51.0776 63.8208 50.9109C63.6318 50.744 63.3824 50.6567 63.127 50.668C62.8716 50.6793 62.6313 50.7882 62.4591 50.9711C62.2868 51.1539 62.1964 51.3952 62.2082 51.6425C62.2008 52.3612 62.0215 53.0686 61.6844 53.7089C61.1163 54.8149 60.0219 56.0258 57.3317 56.4855C54.2301 57.0154 51.2505 58.2252 49.7145 58.4334C49.4628 58.4771 49.2054 58.4793 48.953 58.4395C48.8517 58.4122 48.9255 58.4619 48.9081 58.4252C48.8841 57.5604 49.0658 56.7017 49.4397 55.9157C50.7235 52.5838 52.7005 47.1027 55.0614 43.0773C56.2418 41.0643 57.5371 39.4352 58.7259 38.6443C59.9146 37.8533 60.7896 37.7348 62.0636 38.6332C63.3199 39.5204 63.4939 40.4784 63.1505 41.8719C62.595 43.5751 61.6968 45.1549 60.5078 46.5206C58.7512 48.6262 56.7932 50.5667 54.6594 52.316C54.5611 52.3936 54.4795 52.4892 54.4194 52.5974C54.3593 52.7055 54.322 52.8243 54.3094 52.9465C54.2968 53.0688 54.3094 53.1921 54.3464 53.3098C54.3832 53.4272 54.4438 53.5365 54.5244 53.6313C54.6052 53.7261 54.7045 53.8045 54.8166 53.8621C54.9288 53.9195 55.0516 53.9551 55.1779 53.9666C55.3044 53.9779 55.4318 53.9651 55.5531 53.9286C55.6742 53.8923 55.7868 53.833 55.8842 53.7543C58.1299 51.9213 60.1872 49.8821 62.0272 47.6655C63.3997 46.0988 64.4202 44.2726 65.0234 42.3031C65.2998 41.3631 65.273 40.3636 64.9468 39.4385C64.6207 38.5135 64.0105 37.7068 63.1978 37.1265C62.3776 36.529 61.3756 36.2137 60.3492 36.2293Z" fill="#373841"/>
<path d="M38.2528 40.7972C37.3125 40.8444 36.3852 41.0311 35.5036 41.3506C32.1979 42.5418 29.5411 43.1209 27.6507 44.3758C26.6793 44.9872 25.9627 45.9117 25.6274 46.9853C25.311 48.316 25.3495 49.7026 25.7391 51.0149C26.5237 54.3042 28.5116 56.2862 30.2208 57.9077C31.9301 59.5294 33.2897 60.7658 33.5734 62.7433C33.8944 64.9675 34.0227 68.8854 34.7769 72.33C35.0726 73.965 35.6728 75.5344 36.5485 76.9618C36.9546 77.6253 37.5189 78.185 38.1942 78.5944C38.8694 79.0038 39.6361 79.2507 40.4301 79.3146C43.1325 79.4605 46.6679 79.7234 49.7663 79.1705C51.2757 78.9534 52.7102 78.3923 53.9515 77.5334C55.2077 76.5915 56.0278 75.2066 56.2321 73.6812C56.5366 71.9441 56.4695 70.1648 56.0352 68.4537C55.6008 66.7425 54.8085 65.1359 53.7068 63.7329C53.6223 63.6413 53.5201 63.5666 53.4056 63.5133C53.2912 63.4599 53.1671 63.4292 53.0403 63.4225C52.9136 63.4158 52.7866 63.4334 52.6669 63.4744C52.5473 63.5153 52.4371 63.5788 52.3428 63.6611C52.2487 63.7435 52.1721 63.8432 52.1178 63.9541C52.0634 64.0652 52.0323 64.1856 52.0262 64.3083C52.0201 64.4311 52.0392 64.5537 52.0823 64.6693C52.1253 64.7849 52.1917 64.8912 52.2773 64.9818C52.2773 64.9818 55.1402 67.9765 54.3244 73.4128C54.269 73.9329 54.1025 74.4364 53.8357 74.8909C53.5691 75.3457 53.2078 75.7419 52.7749 76.0547C51.7729 76.7273 50.6234 77.1657 49.4165 77.3352C46.693 77.8216 43.266 77.5992 40.5366 77.4519C40.0397 77.4197 39.5599 77.2635 39.1438 76.9987C38.7276 76.734 38.3894 76.3696 38.1616 75.941C37.4248 74.7027 36.917 73.3495 36.6609 71.9423C35.9605 68.74 35.8303 64.9216 35.481 62.4841C35.0959 59.8039 33.2557 58.1718 31.5694 56.5731C29.8832 54.9746 28.2797 53.3822 27.6153 50.5945C27.3073 49.5879 27.2603 48.5236 27.4787 47.4954C27.6751 46.8301 28.1268 46.2625 28.7412 45.9091C30.1143 44.9971 32.764 44.3236 36.1768 43.094C39.1623 42.0186 42.018 43.032 44.2371 44.3988C45.5915 45.2386 46.8206 46.2538 47.8901 47.4165C48.0546 47.6038 48.2891 47.7207 48.5422 47.7414C48.7956 47.7621 49.0468 47.6851 49.2417 47.5273C49.4364 47.3693 49.5589 47.1433 49.5823 46.8984C49.6056 46.6536 49.528 46.4096 49.3664 46.2199C48.17 44.9104 46.7916 43.7681 45.2705 42.8256C43.2036 41.4651 40.7527 40.7559 38.2533 40.7953L38.2528 40.7972Z" fill="#373841"/>
<path d="M61.165 14.6585C58.7337 14.855 56.3545 15.45 54.1292 16.418C49.0718 18.5571 44.8996 23.5009 41.9032 27.8779C40.0994 30.5122 38.4974 33.271 37.1102 36.1318C37.0553 36.2439 37.0241 36.3654 37.0184 36.4893C37.0124 36.6132 37.0324 36.737 37.0766 36.8533C37.121 36.9696 37.1886 37.0763 37.2761 37.1671C37.3636 37.2577 37.4688 37.3306 37.5856 37.3814C37.7025 37.4321 37.8286 37.4599 37.9567 37.4629C38.0849 37.466 38.2123 37.4442 38.3316 37.399C38.4508 37.3536 38.5595 37.2858 38.6514 37.1993C38.7433 37.113 38.8164 37.0096 38.8665 36.8955C40.2109 34.1269 41.7623 31.4572 43.5085 28.9074C46.4118 24.6645 50.5052 19.9862 54.8995 18.1266C59.4511 16.2006 63.3537 16.0763 67.1402 17.0704C70.9268 18.0645 74.6047 20.2098 78.4709 22.9106C82.0655 25.4213 82.9924 29.1448 83.0283 32.3767C83.0462 34.347 82.7611 36.3087 82.1823 38.1977C82.1394 38.3146 82.1211 38.4383 82.1283 38.562C82.1357 38.6858 82.1683 38.8069 82.2245 38.9182C82.2807 39.0296 82.3593 39.129 82.4556 39.2105C82.552 39.2922 82.6642 39.3544 82.7857 39.3935C82.9072 39.4326 83.0355 39.448 83.1633 39.4385C83.2908 39.4291 83.4153 39.395 83.5292 39.3385C83.6431 39.2818 83.7442 39.2038 83.8267 39.109C83.909 39.0142 83.9711 38.9043 84.009 38.786C84.6558 36.7007 84.9746 34.5329 84.9546 32.3556C84.9123 28.7812 83.8049 24.3359 79.5948 21.3978C75.6542 18.6473 71.7978 16.359 67.6397 15.2724C65.5323 14.7123 63.3412 14.5059 61.1617 14.6622L61.165 14.6585Z" fill="#373841"/>
<path d="M77.0969 37.0961C75.4438 37.2345 73.8387 37.7041 72.3829 38.4748C72.2747 38.538 72.1804 38.6213 72.1054 38.7199C72.0305 38.8184 71.9763 38.9303 71.946 39.049C71.9156 39.1679 71.9097 39.2913 71.9288 39.4124C71.9476 39.5334 71.9911 39.6495 72.0565 39.7544C72.1218 39.859 72.208 39.9503 72.3097 40.0229C72.4116 40.0956 72.5271 40.148 72.6499 40.1772C72.7727 40.2067 72.9001 40.2122 73.0251 40.1939C73.1503 40.1756 73.2703 40.1335 73.3784 40.0702C74.5803 39.4415 75.9037 39.0607 77.2652 38.952C79.5707 38.7562 82.4952 39.2407 85.3753 42.3068C88.5533 45.6906 91.7538 47.4252 93.7083 48.8926C94.505 49.4068 95.1553 50.1066 95.6 50.9274C95.8855 51.5892 95.9209 52.3564 95.4619 53.6139C94.4022 56.5222 94.0454 59.0956 93.1288 61.0733C92.212 63.0508 90.8635 64.5289 87.4056 65.613C83.6622 66.7861 78.9108 68.8762 74.4222 70.4114C69.9334 71.9466 65.7041 72.8021 63.4401 71.9758C62.2051 71.5248 61.906 71.144 61.8353 70.7381C61.7649 70.3325 62.0101 69.5123 62.7584 68.3661C64.2546 66.0735 67.4378 62.6786 70.9637 57.9972C74.5929 53.1777 74.7181 49.2244 73.7823 46.5528C73.2272 44.9591 72.2274 43.5451 70.8937 42.4672C70.7925 42.3937 70.6775 42.3403 70.5549 42.31C70.4325 42.2796 70.3051 42.2729 70.1799 42.2901C70.0547 42.3076 69.9342 42.3485 69.8255 42.4109C69.7167 42.4732 69.6217 42.5558 69.5457 42.6536C69.4699 42.7516 69.4146 42.8629 69.3834 42.9814C69.3519 43.1 69.3449 43.2233 69.3628 43.3447C69.3808 43.4658 69.4231 43.5823 69.4875 43.6875C69.552 43.7929 69.6372 43.885 69.7384 43.9583C70.77 44.8015 71.5384 45.9064 71.9572 47.1487C72.7026 49.2753 72.7629 52.439 69.4057 56.8962C65.946 61.4939 62.8149 64.7867 61.1286 67.3677C60.2858 68.6593 59.723 69.8229 59.9354 71.0458C60.1479 72.2685 61.2231 73.1582 62.7597 73.7174C66.0404 74.9145 70.4623 73.7403 75.0635 72.164C79.6645 70.5879 84.4421 68.4984 87.9975 67.3801C91.8385 66.1767 93.8028 64.1679 94.8848 61.8307C95.9671 59.4933 96.2971 56.9223 97.2773 54.2283C97.8333 52.9467 97.8685 51.5088 97.3761 50.2029C96.813 49.0777 95.9545 48.1152 94.8861 47.4121C92.7249 45.7917 89.7639 44.2062 86.7983 41.05C83.5383 37.5807 79.857 36.8613 77.0969 37.0961Z" fill="#373841"/>
<path d="M90.3144 69.9057C90.131 69.9133 89.9537 69.9717 89.8034 70.0737C89.653 70.1758 89.536 70.3173 89.4661 70.4816C89.3962 70.6459 89.3762 70.8261 89.4086 71.001C89.441 71.176 89.5244 71.3383 89.6488 71.4689C90.5829 72.5689 91.2223 73.8752 91.5102 75.2718C91.7277 76.4385 91.516 77.642 90.9121 78.6733C90.2251 79.8688 88.9055 81.1506 86.483 82.3503C82.8149 84.2406 78.7062 85.1867 74.5516 85.0976C71.2747 85.1071 68.3406 84.7653 65.3758 86.1812C62.4617 87.5728 60.9089 89.6878 59.0635 90.9807C57.218 92.2738 55.1069 93.0037 50.4441 91.8742C45.6943 90.7241 42.7859 89.294 41.0816 88.183C40.258 87.7179 39.5325 87.1066 38.9428 86.3813C38.874 86.2779 38.7849 86.1888 38.6802 86.119C38.5758 86.0491 38.458 86.0001 38.3337 85.9745C38.2095 85.9489 38.0811 85.9474 37.9563 85.97C37.8315 85.9928 37.7125 86.0391 37.6063 86.1064C37.5 86.1738 37.4085 86.2607 37.3371 86.3624C37.2657 86.4641 37.216 86.5785 37.1905 86.6989C37.1649 86.8193 37.1642 86.9434 37.1884 87.0642C37.2127 87.1848 37.2615 87.2996 37.3317 87.4021C38.078 88.3212 38.9826 89.1086 40.0058 89.7295C41.9179 90.9759 45.044 92.4881 49.9763 93.6828C54.9939 94.8986 57.9999 94.0277 60.1913 92.4923C62.3828 90.9571 63.7858 89.0193 66.2251 87.8531C68.6161 86.7111 71.1534 86.9721 74.5534 86.9621C79.01 87.0353 83.4136 86.0199 87.3573 84.0098C90.0236 82.6889 91.6798 81.1685 92.5925 79.5793C93.3978 78.1788 93.6853 76.5543 93.4077 74.9741C93.0736 73.2221 92.2709 71.5852 91.0796 70.2269C90.9846 70.1206 90.8658 70.0367 90.7323 69.9811C90.599 69.9255 90.4544 69.9 90.3093 69.9063L90.3144 69.9057Z" fill="#373841"/>
<path d="M18.303 69.2372C18.1141 69.2355 17.9289 69.2876 17.7704 69.3871C17.6118 69.4864 17.487 69.6288 17.4115 69.7964C16.1842 72.4281 15.4999 74.4879 15.3741 76.2716C15.217 77.903 15.7218 79.5296 16.7818 80.807C18.841 83.2692 22.6229 84.7473 27.9121 87.5128C30.7107 88.9752 32.9188 89.2766 34.6257 88.6484C35.404 88.316 36.0953 87.8186 36.6487 87.1931C37.202 86.5674 37.603 85.8294 37.8221 85.0337C38.4555 82.9149 38.6587 80.6975 38.4205 78.5038C38.3918 78.2588 38.2639 78.0347 38.0647 77.8807C37.8658 77.7268 37.6117 77.6555 37.3584 77.6823C37.1051 77.7094 36.8732 77.8324 36.7135 78.0247C36.5537 78.2167 36.4794 78.4623 36.5064 78.7076C36.5064 78.7076 36.837 82.0186 35.9973 84.4404C35.5776 85.6513 34.9369 86.5398 33.9432 86.9064C32.9497 87.2729 31.3558 87.194 28.8294 85.8737C23.4709 83.0729 19.8038 81.4564 18.2806 79.6352C17.8944 79.1905 17.6077 78.673 17.4386 78.1156C17.2694 77.5581 17.2215 76.9727 17.2978 76.3965C17.3973 74.9854 17.9879 73.0942 19.1683 70.5618C19.2369 70.4205 19.2676 70.2645 19.2576 70.1085C19.2476 69.9526 19.1973 69.8016 19.1113 69.6694C19.0254 69.5371 18.9063 69.428 18.7652 69.3519C18.6243 69.2759 18.4657 69.2354 18.3043 69.2341L18.303 69.2372Z" fill="#373841"/>
<path d="M25.0959 13.8601C24.1276 13.8351 23.1587 13.8846 22.1984 14.008C18.4647 14.5022 14.9094 15.8614 11.8345 17.97C10.2612 19.0747 9.5532 20.8236 9.37734 22.754C9.27302 24.9196 9.4673 27.089 9.95502 29.205C10.8659 33.8802 12.4295 39.19 12.5804 43.7849C12.7299 48.3354 11.1573 50.9498 10.1919 53.768C9.63118 55.2234 9.45038 56.7904 9.66553 58.3296C9.9377 59.9984 10.7792 61.8014 12.4302 63.938C15.8322 68.3405 20.9126 69.5919 25.0234 69.7434C27.5143 69.8316 30.0052 69.5701 32.4186 68.967C32.5412 68.9338 32.6556 68.8775 32.7556 68.8012C32.8557 68.7249 32.9389 68.6302 33.0008 68.5226C33.0628 68.415 33.102 68.2966 33.1164 68.1742C33.1306 68.0517 33.1199 67.9278 33.0844 67.8095C33.0489 67.6913 32.9896 67.5809 32.9097 67.4849C32.83 67.389 32.7312 67.3092 32.6196 67.2504C32.5077 67.1915 32.3849 67.1549 32.2583 67.1423C32.1318 67.1295 32.0038 67.1413 31.882 67.1769C29.6664 67.7252 27.381 67.9623 25.0959 67.8808C21.3209 67.743 16.9279 66.6488 13.972 62.8216C12.4443 60.8434 11.7793 59.3286 11.5687 58.0375C11.396 56.7924 11.5506 55.5253 12.0181 54.3533C12.8917 51.8029 14.6665 48.7194 14.5028 43.7247C14.3404 38.7743 12.7305 33.398 11.846 28.8583C11.3992 26.9091 11.2143 24.9123 11.2959 22.9174C11.4429 21.302 11.934 20.2023 12.9648 19.4785C15.7847 17.5612 19.0349 16.3198 22.4475 15.8564C25.9317 15.4165 29.299 15.9707 31.6971 18.0576C36.8887 22.5764 38.3086 26.4538 38.3086 26.4538C38.3515 26.569 38.4173 26.6748 38.5025 26.7652C38.5876 26.8558 38.6904 26.9291 38.8048 26.9812C38.9193 27.0332 39.0432 27.0628 39.1695 27.0686C39.2958 27.0743 39.4221 27.0558 39.5409 27.0143C39.6598 26.9728 39.7691 26.9089 39.8627 26.8265C39.9561 26.7441 40.0319 26.6446 40.0857 26.5338C40.1395 26.4231 40.1702 26.3032 40.1759 26.181C40.1818 26.0587 40.1628 25.9365 40.1199 25.8214C40.1199 25.8214 38.4605 21.4387 32.984 16.6715C30.7873 14.8493 27.9888 13.8516 25.0959 13.8601Z" fill="#373841"/>
<path d="M60.384 73.2197C60.3291 73.2211 60.2745 73.2271 60.2209 73.2376L56.7746 73.8639C56.6503 73.8865 56.5318 73.9324 56.4259 73.9993C56.3199 74.0662 56.2288 74.1527 56.1574 74.2536C56.0132 74.4577 55.9586 74.7087 56.0056 74.9517C56.0527 75.1948 56.1975 75.4096 56.4083 75.5493C56.6191 75.6888 56.8785 75.7417 57.1296 75.6962L60.5759 75.0697C60.8174 75.0312 61.0348 74.9051 61.1837 74.7169C61.3327 74.5287 61.4019 74.2927 61.3773 74.0569C61.3527 73.8211 61.2364 73.6031 61.0517 73.4475C60.8669 73.2917 60.6288 73.2108 60.384 73.2197Z" fill="#373841"/>
<path d="M50.4861 0.905387C48.5615 0.784536 46.631 1.02526 44.8008 1.61429C40.8853 2.81774 37.2863 3.43346 34.5859 4.3654C33.3378 4.72508 32.1945 5.36353 31.248 6.2293C30.817 6.68073 30.4947 7.21906 30.3042 7.80553C30.114 8.392 30.0603 9.01203 30.1472 9.62097C30.3046 11.2264 30.6236 12.8131 31.0999 14.3584C31.2541 14.8604 31.4695 15.3428 31.7417 15.7954C31.8125 15.8994 31.904 15.9886 32.0111 16.0577C32.1181 16.1269 32.2383 16.1746 32.3646 16.1979C32.4911 16.2214 32.6209 16.22 32.7468 16.194C32.8726 16.168 32.9918 16.1178 33.0972 16.0465C33.2026 15.9751 33.2923 15.8841 33.3607 15.7786C33.4291 15.6732 33.4752 15.5556 33.4959 15.4327C33.5166 15.3098 33.5116 15.1841 33.4813 15.0631C33.4509 14.9421 33.396 14.8281 33.3195 14.728C33.1436 14.4329 33.0118 14.1152 32.9278 13.7843C32.492 12.3564 32.2004 10.8909 32.0568 9.4085C31.9819 9.07018 31.9959 8.71906 32.0978 8.38739C32.1995 8.05572 32.3859 7.75414 32.6396 7.51042C33.3875 6.86929 34.2716 6.39503 35.2297 6.1212C37.6618 5.28182 41.3224 4.63752 45.3798 3.39058C49.1605 2.22938 51.8629 2.70344 54.2872 3.76337C56.7117 4.82331 58.8087 6.53063 61.1177 7.84094C63.5113 9.19848 65.4644 9.07484 67.5892 8.52438C70.512 7.60676 73.533 7.01314 76.5943 6.75493C78.1133 6.56616 79.6545 6.62919 81.1517 6.94131C81.5146 7.01873 81.8556 7.17304 82.1496 7.39315C82.4438 7.61328 82.6838 7.89373 82.8526 8.21435C83.6351 9.52964 83.9637 12.2603 85.6031 16.0427C87.1006 19.4966 86.4017 21.1205 85.514 22.0861C84.9422 22.6818 84.2078 23.1084 83.3957 23.3162C83.2718 23.341 83.1542 23.3892 83.0497 23.4579C82.9451 23.5266 82.8554 23.6146 82.786 23.7169C82.7165 23.8191 82.6684 23.9338 82.6448 24.054C82.6209 24.1742 82.622 24.2977 82.6475 24.4176C82.6731 24.5374 82.7228 24.6512 82.7938 24.7525C82.8648 24.8536 82.9558 24.9405 83.0616 25.0077C83.1671 25.075 83.2855 25.1213 83.4095 25.1444C83.5338 25.1674 83.6614 25.1665 83.7853 25.1416C85.0036 24.8542 86.1058 24.2216 86.951 23.3249C88.3073 21.8499 89.0577 19.2008 87.376 15.322C85.8355 11.7713 85.6789 9.23329 84.519 7.28489C83.9025 6.24527 82.8898 5.48072 81.6979 5.15507C79.9755 4.76474 78.1946 4.67677 76.4401 4.89538C73.2619 5.16255 70.1246 5.77507 67.0879 6.72136C65.1083 7.23332 64.105 7.37498 62.0869 6.22992C59.984 5.03702 57.814 3.25701 55.0749 2.06162C53.6251 1.41745 52.0693 1.02603 50.4789 0.905387H50.4861Z" fill="#373841"/>
<path d="M89.3809 20.8851C89.2544 20.8857 89.1294 20.9105 89.0127 20.9577C88.8962 21.0051 88.7903 21.0742 88.7013 21.1613C88.6124 21.2482 88.5419 21.3511 88.4941 21.4645C88.4462 21.5779 88.4219 21.699 88.4225 21.8214C88.423 21.9439 88.4486 22.0648 88.4976 22.1778C88.5464 22.2906 88.6179 22.393 88.7078 22.4792C88.7975 22.5653 88.904 22.6335 89.021 22.6798C89.1381 22.7261 89.2634 22.7496 89.3899 22.7491C89.3899 22.7491 99.0111 22.7242 102.375 30.3792C104.185 34.4985 106.162 39.0258 107.13 43.0407C108.098 47.0555 108.018 50.4111 106.153 52.4801C103.48 55.398 100.346 57.8866 96.8666 59.8524C96.646 59.9771 96.4855 60.1812 96.4204 60.4203C96.3555 60.6595 96.3912 60.9138 96.5199 61.1273C96.6486 61.3409 96.8597 61.4961 97.1068 61.5591C97.3538 61.6221 97.6164 61.5875 97.8372 61.4628C101.494 59.3977 104.788 56.783 107.597 53.7171L107.601 53.7121C110.111 50.9342 110.034 46.8729 109.007 42.6176C107.98 38.3624 105.96 33.7709 104.149 29.6505C100.271 20.8281 89.386 20.8858 89.386 20.8858L89.3809 20.8851Z" fill="#373841"/>
<path d="M97.7218 91.2841C97.7218 91.2841 94.9573 85.6233 105.107 78.6094C115.258 71.5957 138.661 78.6213 143.923 89.7524C149.185 100.884 115.038 107.063 105.147 105.767C95.1158 104.454 98.3618 97.3461 98.3618 97.3461" fill="#F2E5E0"/>
<path d="M112.293 98.3339C107.135 97.9251 99.9083 99.1552 91.7018 105.417C83.5619 111.625 79.4416 117.288 77.3698 121.439C75.2977 125.591 75.2733 128.344 75.2733 128.344C75.2735 128.466 75.2986 128.587 75.3473 128.7C75.3959 128.813 75.4671 128.916 75.5566 129.002C75.6463 129.089 75.7526 129.157 75.8695 129.204C75.9863 129.25 76.1117 129.274 76.238 129.274C76.3644 129.274 76.4896 129.249 76.6063 129.202C76.7232 129.155 76.8291 129.086 76.9182 129C77.0075 128.913 77.0782 128.81 77.1264 128.697C77.1745 128.584 77.1993 128.462 77.1989 128.34C77.1989 128.34 77.1649 126.13 79.1022 122.251C81.0394 118.373 84.9517 112.938 92.8924 106.882C100.767 100.876 107.427 99.8212 112.136 100.194C116.844 100.567 119.53 102.352 119.53 102.352C119.635 102.421 119.752 102.469 119.876 102.494C120 102.518 120.128 102.519 120.252 102.496C120.376 102.473 120.494 102.427 120.6 102.36C120.706 102.292 120.797 102.206 120.868 102.105C120.939 102.003 120.989 101.89 121.014 101.769C121.04 101.65 121.041 101.526 121.017 101.406C120.993 101.286 120.945 101.171 120.876 101.069C120.807 100.967 120.717 100.879 120.612 100.81C118.078 99.3643 115.228 98.5172 112.293 98.337L112.293 98.3339Z" fill="#373841"/>
<path d="M109.054 81.9315C105.215 82.0899 101.686 83.0125 98.9445 84.9081C93.7363 88.5086 91.7099 91.8716 91.0687 94.4141C90.8037 95.4182 90.7442 96.4627 90.8934 97.4888C90.9574 97.9189 91.0764 98.3398 91.2484 98.7414C91.3575 98.9649 91.554 99.1372 91.7946 99.2206C92.035 99.3039 92.3 99.2913 92.5309 99.1855C92.7617 99.0798 92.9399 98.8897 93.0259 98.6569C93.1121 98.4241 93.0989 98.1677 92.9898 97.9441C92.8896 97.7091 92.8247 97.4614 92.7972 97.2086C92.6853 96.4229 92.7339 95.6234 92.9403 94.8558C93.4538 92.8153 95.1227 89.8395 100.065 86.4235C104.732 83.1977 112.874 83.1064 120.468 85.3238C128.062 87.5411 135.007 92.0389 137.445 97.1962C137.709 97.6928 137.864 98.2364 137.902 98.7936C137.939 99.3508 137.858 99.9094 137.663 100.435C137.15 101.636 136.319 102.685 135.254 103.475C132.814 105.457 128.817 107.22 124.327 108.586C115.346 111.32 104.273 112.501 99.6744 111.899C97.2878 111.589 95.7865 110.942 94.8526 110.222C94.0747 109.657 93.534 108.839 93.3306 107.919C93.135 106.864 93.2419 105.777 93.64 104.777C93.7433 104.551 93.7494 104.294 93.6574 104.064C93.5653 103.833 93.3822 103.647 93.1487 103.547C92.9151 103.447 92.65 103.441 92.4118 103.531C92.1737 103.62 91.9819 103.797 91.8787 104.023C91.3024 105.383 91.1532 106.877 91.4499 108.319C91.7595 109.653 92.5387 110.842 93.6542 111.681C94.9334 112.665 96.7872 113.4 99.4164 113.744C104.71 114.437 115.656 113.178 124.905 110.363C129.53 108.956 133.699 107.169 136.493 104.902C137.826 103.901 138.857 102.573 139.479 101.055C140.02 99.5343 139.919 97.8684 139.197 96.4195C136.373 90.4457 128.986 85.8624 121.025 83.5376C117.154 82.3658 113.11 81.822 109.056 81.9283L109.054 81.9315Z" fill="#373841"/>
<path d="M71.5582 85.6618C71.4234 85.6572 71.2891 85.68 71.164 85.7285C71.0388 85.7772 70.9256 85.851 70.8319 85.9447C70.7379 86.0382 70.6655 86.1501 70.619 86.2725C70.5728 86.3952 70.5534 86.5258 70.5625 86.656C71.1076 97.2181 72.1602 111.294 74.1006 124.387C75.4797 134.06 77.8402 143.579 81.148 152.804C83.4658 159.614 85.3708 165.155 85.8817 174.018C86.8998 191.677 79.2813 203.398 79.2813 203.398C79.2138 203.502 79.1682 203.618 79.1467 203.739C79.1255 203.859 79.1288 203.983 79.1569 204.102C79.1848 204.222 79.2368 204.335 79.31 204.435C79.383 204.533 79.4757 204.619 79.5827 204.685C79.6896 204.75 79.8089 204.795 79.9337 204.815C80.0583 204.835 80.1859 204.832 80.3092 204.806C80.4326 204.778 80.5492 204.728 80.6526 204.657C80.7558 204.587 80.8436 204.496 80.9111 204.393C80.9111 204.393 88.8558 192.142 87.8049 173.917C87.2818 164.839 85.2945 159.031 82.9772 152.223C79.7009 143.101 77.3655 133.687 76.0052 124.119C74.0794 111.118 73.0267 97.0877 72.4836 86.5609C72.4753 86.3253 72.3749 86.1016 72.2028 85.9347C72.0306 85.768 71.7997 85.6704 71.5562 85.6618H71.5582Z" fill="#373841"/>
<path d="M37.8706 140.937C37.8706 140.937 35.8261 136.823 27.063 139.171C18.3 141.518 11.6777 157.574 15.7806 165.564C19.8835 173.554 39.1594 157.668 42.9396 151.647C46.7723 145.54 41.1236 144.064 41.1236 144.064" fill="#F2E5E0"/>
<path d="M57.4382 139.107C56.1699 139.191 54.9104 139.37 53.6709 139.644C43.481 141.881 37.9447 146.54 35.0272 150.678C33.3248 153 32.2113 155.677 31.7768 158.493C31.7555 158.739 31.8361 158.984 32.0011 159.173C32.166 159.361 32.4018 159.479 32.6562 159.5C32.9106 159.52 33.1632 159.442 33.3583 159.282C33.5532 159.123 33.6748 158.895 33.6961 158.648C33.6961 158.648 33.9528 155.505 36.6173 151.729C39.2817 147.953 44.3199 143.607 54.0971 141.463C63.7037 139.357 70.7594 143.638 75.5817 148.546C78.5474 151.602 80.9889 155.097 82.8134 158.899C82.8629 159.012 82.9351 159.114 83.0255 159.2C83.1159 159.285 83.2228 159.353 83.3402 159.398C83.4574 159.444 83.583 159.467 83.7094 159.466C83.8359 159.464 83.9609 159.439 84.0772 159.391C84.1935 159.343 84.2989 159.273 84.3873 159.186C84.4759 159.098 84.5456 158.994 84.5927 158.881C84.6399 158.767 84.6636 158.646 84.6623 158.523C84.6608 158.401 84.6345 158.28 84.585 158.167C82.6714 154.16 80.1025 150.477 76.9772 147.261C72.5206 142.727 65.9522 138.556 57.4382 139.107Z" fill="#373841"/>
<path d="M39.1967 137.694C37.2723 137.656 35.3536 137.908 33.5088 138.44C28.6434 139.745 24.715 144.591 22.4074 150.068C20.0998 155.544 19.3624 161.752 21.6199 166.15C22.1691 167.267 23.1496 168.131 24.3504 168.556C25.5678 168.927 26.8658 168.974 28.1086 168.693C30.777 168.191 33.7573 166.705 36.715 164.808C42.6372 161.007 48.3924 155.603 50.4643 152.303C51.3404 151.045 51.8494 149.581 51.9374 148.067C51.9566 147.013 51.5983 145.984 50.9232 145.157C50.1823 144.289 49.1908 143.656 48.0758 143.336C47.9536 143.304 47.8262 143.296 47.7007 143.312C47.5751 143.328 47.454 143.368 47.3444 143.429C47.2347 143.49 47.1384 143.571 47.0613 143.668C46.984 143.765 46.9274 143.876 46.8945 143.995C46.8616 144.113 46.8531 144.236 46.8693 144.358C46.8858 144.479 46.9267 144.597 46.9899 144.703C47.0529 144.809 47.1371 144.902 47.2375 144.977C47.3377 145.051 47.4523 145.106 47.5746 145.138C48.2874 145.364 48.9238 145.772 49.4173 146.319C49.8275 146.806 50.0388 147.422 50.0118 148.05C49.923 149.228 49.5111 150.362 48.8186 151.335C47.1104 154.055 41.3381 159.605 35.6509 163.255C32.8072 165.08 29.9591 166.447 27.7416 166.864C26.8361 167.077 25.889 167.055 24.9948 166.802C24.6289 166.68 24.2931 166.485 24.0091 166.23C23.725 165.975 23.4991 165.666 23.3452 165.322C21.5004 161.727 22.0256 155.91 24.1912 150.775C26.357 145.639 30.1235 141.284 34.0212 140.239C38.2448 139.108 40.6794 139.562 42.0448 140.186C42.5577 140.411 43.0198 140.731 43.4049 141.129C43.524 141.241 43.6253 141.37 43.706 141.511C43.7568 141.627 43.8315 141.732 43.9254 141.819C44.0196 141.907 44.1309 141.974 44.2527 142.019C44.3746 142.063 44.5046 142.083 44.6347 142.078C44.7649 142.072 44.8925 142.041 45.0097 141.986C45.1271 141.932 45.2318 141.854 45.3176 141.759C45.4032 141.665 45.4681 141.554 45.5082 141.434C45.5484 141.314 45.5628 141.187 45.551 141.062C45.5391 140.936 45.501 140.814 45.4389 140.703C45.2712 140.403 45.0658 140.124 44.8272 139.873C44.2716 139.297 43.605 138.831 42.865 138.502C41.7101 137.998 40.462 137.725 39.1954 137.699L39.1967 137.694Z" fill="#373841"/>
</g>
<defs>
<clipPath id="clip0_7_679">
<rect width="173.911" height="205.256" fill="white"/>
</clipPath>
</defs>
</svg>
