<svg width="187" height="207" viewBox="0 0 187 207" fill="none" xmlns="http://www.w3.org/2000/svg">
<path opacity="0.15" d="M167.479 66.8688C201.61 104.552 169.111 128.767 142.376 149.554C115.642 170.34 92.8607 149.14 71.4863 123.767C50.1119 98.393 34.0994 63.1057 60.631 47.5196C87.1626 31.9336 133.355 29.1827 167.479 66.8688Z" fill="#D4CFE8"/>
<path opacity="0.2" d="M150.278 158.791C123.571 179.557 97.5867 154.551 72.7548 125.072C47.9227 95.5931 144.558 128.673 171.266 107.906C197.974 87.1396 176.986 138.024 150.278 158.791Z" fill="#D4CFE8"/>
<path opacity="0.1" d="M108.815 132.499C76.0941 142.799 64.4511 120.063 55.8173 94.2921C47.1837 68.5206 141.536 122.198 108.815 132.499Z" fill="#D4CFE8"/>
<path d="M48.3571 69.6161H48.3364L48.3154 69.6209C48.0488 69.6636 47.7948 69.7603 47.5702 69.9048C47.3458 70.0492 47.1561 70.238 47.014 70.4586C46.7785 70.8624 46.6999 71.3332 46.7919 71.7873C46.8839 72.2414 47.1405 72.6496 47.5165 72.9393C47.7343 73.0929 47.9838 73.1999 48.2483 73.2532C48.5128 73.3065 48.7861 73.3051 49.0499 73.2487C49.545 73.1657 50.0103 72.9649 50.4033 72.6645C50.6073 72.5124 50.7646 72.31 50.8586 72.0789C50.9525 71.8479 50.9796 71.5967 50.9368 71.352L50.933 71.3356L50.928 71.3193C50.7591 70.8009 50.4142 70.3516 49.9485 70.0428C49.4829 69.7341 48.9221 69.5845 48.3571 69.6161ZM48.4203 70.2275C48.8355 70.2085 49.2457 70.321 49.5875 70.548C49.9294 70.7749 50.1839 71.1035 50.3117 71.483C50.3374 71.6195 50.3213 71.7601 50.2651 71.8879C50.2091 72.0156 50.1153 72.1249 49.9956 72.2024C49.6835 72.4324 49.3184 72.587 48.9311 72.6537C48.7552 72.6965 48.5714 72.7011 48.3933 72.6674C48.2152 72.6336 48.0472 72.5622 47.9015 72.4584C47.6486 72.2588 47.4763 71.9812 47.4138 71.6728C47.3513 71.3644 47.4029 71.0449 47.5595 70.7692C47.6534 70.6246 47.7791 70.5012 47.9276 70.4077C48.0762 70.3141 48.2446 70.2527 48.4203 70.2275Z" fill="black"/>
<path d="M119.94 65.2639C121.512 63.528 121.152 59.7184 119.343 58.2098C117.534 56.7014 114.96 58.065 113.388 59.8009C112.633 60.6346 112.254 61.7219 112.334 62.8237C112.415 63.9256 112.948 64.9517 113.817 65.6761C114.686 66.4005 115.819 66.764 116.968 66.6868C118.116 66.6095 119.185 66.0977 119.94 65.2639Z" fill="#D4CFE8"/>
<path d="M114.739 73.944C115.066 73.4686 115.218 72.902 115.17 72.3343C115.123 71.7667 114.879 71.2304 114.477 70.8112C113.67 70.1386 112.527 70.7451 111.828 71.5166C111.65 71.6982 111.513 71.9124 111.424 72.1463C111.335 72.38 111.296 72.6286 111.309 72.8773C111.322 73.1259 111.388 73.3694 111.501 73.5934C111.615 73.8171 111.775 74.0165 111.97 74.1799C112.166 74.343 112.395 74.4667 112.641 74.5435C112.888 74.6201 113.149 74.6482 113.407 74.6261C113.666 74.6039 113.917 74.5321 114.145 74.4146C114.374 74.2972 114.577 74.1379 114.739 73.944Z" fill="#373841"/>
<path d="M161.115 98.8269C160.939 98.8356 160.768 98.891 160.623 98.9876C160.478 99.0841 160.364 99.2175 160.293 99.3729C160.293 99.3729 152.473 116.555 140.314 131.14C134.253 138.41 129.525 141.475 124.997 144.583C120.468 147.692 116.136 150.864 111.319 158.076C101.648 172.561 102.13 188.596 102.13 188.596C102.135 188.752 102.182 188.905 102.266 189.04C102.35 189.174 102.47 189.286 102.612 189.362C102.612 189.362 106.247 191.303 112.283 190.921C118.319 190.539 126.832 187.889 136.866 179.082C147.152 170.052 153.283 150.291 157.053 132.734C159.365 121.856 161.052 110.864 162.106 99.8083C162.117 99.6795 162.099 99.5499 162.053 99.4283C162.008 99.3066 161.936 99.1957 161.842 99.1029C161.748 99.0101 161.635 98.9376 161.509 98.8902C161.384 98.8427 161.25 98.8207 161.115 98.8269ZM159.63 104.869C158.651 114.102 157.172 123.281 155.196 132.366C151.453 149.798 145.115 169.375 135.587 177.739C125.806 186.325 117.742 188.752 112.16 189.104C107.204 189.415 104.642 188.25 104.042 187.956C104.027 186.374 104.12 172.229 112.915 159.057C117.592 152.054 121.596 149.152 126.098 146.062C130.599 142.972 135.594 139.714 141.795 132.278C150.324 122.046 156.485 110.973 159.63 104.869Z" fill="#373841"/>
<path d="M10.7138 71.8813C10.5704 71.8882 10.4306 71.9265 10.3049 71.9929C10.1791 72.0594 10.0707 72.1524 9.98789 72.2649C9.90505 72.3774 9.84993 72.5064 9.82664 72.6424C9.80336 72.7781 9.81254 72.9175 9.85349 73.0494C13.2812 83.6515 17.3137 94.0648 21.9326 104.242C29.4258 120.66 39.7045 138.763 51.7225 145.541C63.4451 152.152 72.344 153.046 78.3346 152.213C84.3252 151.379 87.4586 148.756 87.4586 148.756C87.5808 148.652 87.673 148.519 87.7261 148.371C87.7793 148.223 87.7916 148.063 87.7619 147.909C87.7619 147.909 84.7594 132.131 72.1602 119.895C65.8862 113.803 60.9608 111.564 55.8572 109.428C50.7533 107.292 45.4645 105.243 37.9612 99.3395C22.9087 87.5025 11.5343 72.2579 11.5343 72.2579C11.4418 72.1341 11.3184 72.0343 11.1754 71.9681C11.0324 71.9019 10.8743 71.8712 10.7157 71.8788L10.7138 71.8813ZM13.3719 77.5038C17.7708 82.8474 26.1981 92.4469 36.7564 100.75C44.4329 106.786 50.0239 108.975 55.0967 111.099C60.1694 113.222 64.7168 115.261 70.808 121.177C82.2651 132.303 85.4219 146.12 85.7507 147.67C85.2272 148.077 82.9743 149.728 78.0602 150.412C72.5229 151.182 64.11 150.417 52.6833 143.972C41.5517 137.694 31.1097 119.814 23.6691 103.513C19.7672 95.0206 16.3302 86.3394 13.3719 77.5038Z" fill="#373841"/>
<path d="M89.5807 0.429803C89.4044 0.426924 89.2306 0.471321 89.0791 0.558C88.9275 0.644697 88.8042 0.770227 88.7229 0.920497C83.5108 10.8323 78.8701 21.0116 74.822 31.412C68.3233 48.2184 62.6083 68.0927 66.3454 80.9809C69.9908 93.5519 75.745 100.129 80.6559 103.522C85.5668 106.915 89.7192 107.12 89.7192 107.12C89.8826 107.127 90.0451 107.093 90.1908 107.022C90.3367 106.951 90.4607 106.844 90.5511 106.714C90.5511 106.714 99.8159 93.3608 99.6132 76.1594C99.5119 67.5941 97.5903 62.7005 95.4657 57.7611C93.3412 52.8214 91.0227 47.8194 89.8975 38.5721C87.6414 20.022 90.4986 1.47304 90.4986 1.47304C90.5185 1.345 90.5097 1.21436 90.4727 1.08984C90.4358 0.965321 90.3716 0.849797 90.2844 0.750997C90.1973 0.652197 90.0892 0.572379 89.9673 0.516891C89.8452 0.461386 89.7124 0.431492 89.5775 0.429199L89.5807 0.429803ZM88.0289 6.47147C87.3241 13.2482 86.4341 25.7714 88.0162 38.7833C89.1668 48.2451 91.6036 53.5462 93.7154 58.4555C95.8273 63.3647 97.6212 67.8646 97.7193 76.1813C97.9038 91.8233 90.1692 103.866 89.2831 105.2C88.6111 105.144 85.795 104.83 81.7653 102.046C77.2242 98.9086 71.7266 92.7487 68.1748 80.4944C64.7132 68.5567 70.1508 48.7328 76.6033 32.0465C79.9454 23.3365 83.759 14.7998 88.0289 6.47147Z" fill="#373841"/>
<path d="M3.42112 120.835C3.2618 120.842 3.10679 120.886 2.97044 120.966C2.83408 121.045 2.72078 121.156 2.64099 121.289C2.56121 121.421 2.51755 121.571 2.51403 121.724C2.5105 121.877 2.54725 122.028 2.62085 122.164C8.65638 132.952 15.3053 143.413 22.5377 153.501C34.2494 169.766 49.3583 187.284 63.8116 192.183C77.9421 196.974 87.7507 196.139 94.0314 194.035C100.312 191.932 103.109 188.482 103.109 188.482C103.209 188.358 103.273 188.212 103.295 188.056C103.318 187.901 103.299 187.743 103.239 187.597C103.239 187.597 96.5334 171.138 80.2297 160.449C72.109 155.124 66.3061 153.7 60.313 152.417C54.3199 151.134 48.1263 149.974 38.6945 145.094C19.7803 135.305 4.11202 121.082 4.11202 121.082C4.01993 120.999 3.91133 120.934 3.79267 120.891C3.674 120.849 3.54766 120.83 3.42112 120.835ZM6.9793 125.924C12.7998 130.752 24.2885 139.705 37.7964 146.696C47.424 151.678 53.9406 152.918 59.9008 154.194C65.861 155.47 71.255 156.768 79.1622 161.952C94.1243 171.762 100.586 186.254 101.219 187.731C100.78 188.237 98.6642 190.558 93.4075 192.319C87.5572 194.28 78.2512 195.147 64.4439 190.468C50.9595 185.898 35.7343 168.627 24.0983 152.468C17.9067 143.917 12.1924 135.057 6.9793 125.924Z" fill="#373841"/>
<path d="M158.229 44.8024C158.052 44.8021 157.879 44.849 157.728 44.9379C157.578 45.0269 157.456 45.1543 157.378 45.3059C157.378 45.3059 147.727 63.8227 133.444 79.2384C126.322 86.925 120.915 90.0499 115.739 93.2255C110.564 96.4014 105.619 99.6476 99.886 107.32C88.3776 122.726 87.9497 140.396 87.9497 140.396C87.9463 140.553 87.9853 140.708 88.0628 140.846C88.1403 140.984 88.2537 141.101 88.3923 141.185C88.3923 141.185 92.2519 143.506 98.9061 143.42C105.561 143.334 115.076 140.89 126.648 131.747C138.485 122.395 146.433 100.964 151.635 81.8295C154.832 69.9718 157.347 57.9544 159.17 45.8318C159.188 45.7033 159.177 45.5727 159.138 45.4487C159.099 45.3244 159.033 45.2098 158.944 45.1122C158.855 45.0145 158.746 44.9363 158.623 44.8826C158.5 44.8287 158.367 44.8008 158.232 44.8007L158.229 44.8024ZM156.412 50.7992C154.772 61.0942 152.563 71.2982 149.796 81.3685C144.627 100.38 136.483 121.617 125.44 130.342C114.133 139.276 105.076 141.519 98.8777 141.6C93.3069 141.673 90.4883 140.185 89.896 139.854C89.9643 138.261 90.8669 122.516 101.428 108.379C107.01 100.908 111.616 97.9165 116.762 94.7583C121.908 91.6 127.59 88.2939 134.862 80.4441C145.061 69.4416 152.664 57.2504 156.412 50.7992Z" fill="#373841"/>
<path d="M160.452 100.907C160.25 100.906 160.053 100.967 159.889 101.081C159.726 101.195 159.605 101.357 159.544 101.542C159.544 101.542 149.762 129.713 139.407 145.333C134.191 153.201 131.04 156.559 128.061 159.196C125.081 161.831 122.182 163.8 117.677 168.677L117.674 168.682C112.052 174.84 106.975 181.435 102.494 188.402C102.429 188.504 102.385 188.616 102.365 188.735C102.345 188.852 102.35 188.973 102.378 189.088C102.407 189.206 102.459 189.316 102.532 189.412C102.605 189.51 102.697 189.591 102.803 189.654C102.909 189.718 103.027 189.758 103.15 189.778C103.272 189.798 103.398 189.792 103.519 189.766C103.64 189.737 103.755 189.687 103.856 189.618C103.957 189.547 104.042 189.46 104.108 189.359C108.533 182.479 113.546 175.965 119.097 169.883L119.1 169.879C123.5 165.113 126.263 163.259 129.345 160.533C132.427 157.807 135.735 154.259 141.006 146.309C151.625 130.297 161.344 102.114 161.344 102.114C161.393 101.977 161.408 101.831 161.387 101.688C161.365 101.545 161.309 101.408 161.222 101.29C161.134 101.172 161.019 101.075 160.886 101.009C160.752 100.942 160.603 100.907 160.452 100.907Z" fill="#373841"/>
<path d="M11.8735 73.7727C11.7092 73.78 11.5497 73.828 11.4107 73.9122C11.2716 73.9965 11.1578 74.1138 11.0803 74.2531C11.0028 74.3923 10.9644 74.5483 10.9688 74.706C10.9732 74.8638 11.0203 75.0177 11.1055 75.1526C11.1055 75.1526 26.7232 100.772 40.5754 114.315C47.4521 121.039 51.4548 123.846 55.061 125.9C58.6672 127.954 61.7734 129.213 67.1129 133.001C73.8597 137.84 80.1749 143.209 85.9938 149.053C86.0797 149.139 86.1826 149.208 86.2966 149.257C86.4104 149.305 86.5332 149.331 86.6576 149.334C86.7821 149.337 86.906 149.316 87.0221 149.273C87.1383 149.229 87.2444 149.165 87.3344 149.082C87.4244 149 87.4967 148.901 87.547 148.792C87.5973 148.682 87.6247 148.565 87.6276 148.445C87.6304 148.326 87.6088 148.207 87.5638 148.095C87.5187 147.984 87.4513 147.882 87.3654 147.796C81.4726 141.878 75.0767 136.441 68.2438 131.541H68.2401C62.7792 127.667 59.513 126.324 56.0276 124.338C52.542 122.352 48.7328 119.698 41.9313 113.045C28.4179 99.8287 12.7414 74.2332 12.7414 74.2332C12.655 74.0871 12.5282 73.967 12.375 73.8857C12.2219 73.8045 12.0483 73.7651 11.8735 73.7727Z" fill="#373841"/>
<path d="M89.0444 2.56127C88.8257 2.55601 88.6117 2.62357 88.4388 2.75247C88.2661 2.88138 88.145 3.0637 88.0963 3.26849C88.0963 3.26849 80.7782 32.111 80.9357 51.0887C81.0141 60.51 81.8599 65.1983 82.9679 69.0783C84.0761 72.9584 85.3978 75.9364 86.4965 82.2207C87.8463 90.1999 88.5016 98.2729 88.456 106.356C88.4553 106.476 88.4791 106.594 88.526 106.705C88.573 106.816 88.6421 106.916 88.7296 107.001C88.9065 107.173 89.147 107.27 89.3985 107.272C89.6501 107.273 89.8917 107.179 90.0707 107.009C90.2496 106.839 90.3509 106.609 90.3524 106.367C90.3989 98.1808 89.7351 90.0049 88.3681 81.9241C88.3681 81.9241 88.3681 81.9211 88.3681 81.9193C87.2449 75.4901 85.8701 72.3477 84.7993 68.5969C83.7284 64.8461 82.911 60.3952 82.8339 51.0722C82.6803 32.5622 89.9414 3.6967 89.9414 3.6967C89.9771 3.56393 89.981 3.42516 89.9527 3.29076C89.9246 3.15638 89.865 3.02984 89.7788 2.92059C89.6925 2.81136 89.5815 2.72224 89.4543 2.65991C89.327 2.59758 89.1873 2.56426 89.0444 2.56127Z" fill="#373841"/>
<path d="M5.09302 122.652C4.91253 122.658 4.7377 122.714 4.58905 122.813C4.44041 122.911 4.32416 123.048 4.25398 123.208C4.18379 123.367 4.16258 123.543 4.19286 123.714C4.22315 123.885 4.30363 124.044 4.42488 124.172C4.42488 124.172 26.9586 148.767 44.9139 160.624C53.8331 166.515 58.773 168.744 63.1189 170.235C67.4646 171.728 71.1165 172.469 77.7365 175.494C86.1099 179.377 94.132 183.922 101.72 189.081C101.925 189.22 102.18 189.275 102.428 189.234C102.675 189.195 102.896 189.06 103.042 188.864C103.187 188.667 103.245 188.422 103.203 188.184C103.16 187.947 103.021 187.734 102.816 187.595C95.1409 182.377 87.0266 177.781 78.5571 173.855H78.5521C71.796 170.768 67.9741 169.974 63.7605 168.525C59.5469 167.076 54.823 164.963 45.9886 159.129C28.4346 147.536 5.84904 122.974 5.84904 122.974C5.7558 122.87 5.63911 122.787 5.50773 122.732C5.37635 122.677 5.23369 122.651 5.0905 122.657L5.09302 122.652Z" fill="#373841"/>
<path d="M157.271 47.0607C157.085 47.0681 156.905 47.128 156.755 47.2331C156.604 47.3379 156.488 47.4833 156.423 47.6507C156.423 47.6507 143.961 78.1592 131.6 94.8249C125.378 103.212 121.697 106.749 118.25 109.496C114.803 112.242 111.495 114.245 106.246 119.367L106.242 119.372C99.6834 125.845 93.6973 132.831 88.3459 140.257C88.2029 140.456 88.1478 140.701 88.1931 140.938C88.2382 141.176 88.3797 141.386 88.5868 141.524C88.7937 141.661 89.0491 141.714 89.2966 141.671C89.5441 141.627 89.7635 141.491 89.9067 141.293C95.1972 133.951 101.115 127.044 107.6 120.644C112.74 115.628 115.906 113.73 119.459 110.901C123.013 108.072 126.861 104.351 133.142 95.8846C145.784 78.841 158.186 48.3179 158.186 48.3179C158.246 48.1766 158.268 48.0233 158.251 47.8716C158.233 47.72 158.175 47.5752 158.084 47.4504C157.992 47.3257 157.87 47.2249 157.727 47.1575C157.584 47.0902 157.426 47.0584 157.268 47.0649L157.271 47.0607Z" fill="#373841"/>
<path d="M89.5238 106.393C89.37 106.4 89.2202 106.443 89.0876 106.517C88.9548 106.592 88.8431 106.697 88.7621 106.823C82.8942 115.662 82.9953 128.614 88.6357 152.495C91.3102 163.82 97.3071 177.484 100.599 186.609C104.48 197.369 105.55 202.957 105.55 202.957C105.569 203.077 105.613 203.193 105.68 203.298C105.746 203.401 105.834 203.492 105.937 203.561C106.041 203.632 106.158 203.682 106.282 203.708C106.406 203.735 106.534 203.737 106.659 203.716C106.784 203.692 106.903 203.648 107.009 203.58C107.115 203.513 107.206 203.426 107.276 203.325C107.347 203.223 107.395 203.109 107.419 202.99C107.442 202.87 107.441 202.747 107.414 202.628C107.414 202.628 106.303 196.86 102.391 186.015C99.0581 176.777 93.0985 163.148 90.4854 152.091C84.8752 128.344 84.9516 115.945 90.3588 107.799C90.4549 107.659 90.5086 107.496 90.5142 107.328C90.5195 107.161 90.4768 106.995 90.3901 106.849C90.3035 106.703 90.1766 106.584 90.0233 106.503C89.8701 106.422 89.6966 106.383 89.522 106.391L89.5238 106.393Z" fill="#373841"/>
</svg>
