<svg width="236" height="206" viewBox="0 0 236 206" fill="none" xmlns="http://www.w3.org/2000/svg">
<g clip-path="url(#clip0_7_738)">
<path opacity="0.15" d="M201.675 157.065C172.8 223.794 121.834 197.023 78.7765 175.531C35.7189 154.039 -15.7811 111.595 4.61362 68.7216C25.0085 25.8481 127.159 -15.9155 163.305 8.49821C199.451 32.9119 230.55 90.3374 201.675 157.065Z" fill="#D4CFE8"/>
<path d="M151.75 45.5924C166.923 42.745 187.937 57.0356 190.887 71.6864C193.838 86.3372 177.604 95.7909 162.431 98.6383C158.817 99.331 155.096 99.3279 151.483 98.6292C147.87 97.9304 144.435 96.5495 141.376 94.5662C138.317 92.5828 135.694 90.0357 133.657 87.0711C131.62 84.1065 130.21 80.7828 129.507 77.2907C128.804 73.7987 128.822 70.2068 129.56 66.7216C130.299 63.2362 131.743 59.926 133.809 56.9809C135.876 54.0356 138.525 51.5135 141.604 49.5589C144.683 47.6046 148.13 46.2572 151.75 45.5924Z" fill="#F5CED3"/>
<path d="M138.788 0.0284395C133.321 0.218886 126.637 2.09973 118.481 6.17714C105.434 12.6996 99.5632 19.2929 98.4492 25.7358C97.3352 32.179 101.081 38.0334 106.288 42.8662C112.818 48.9268 121.443 53.3764 127.253 56.0333C121.067 55.5737 111.735 55.2802 102.932 57.0051C95.8128 58.4012 89.2033 61.1089 85.7791 66.3712C82.355 71.6337 82.4204 79.2136 88.0241 89.6459C93.6108 100.047 99.9073 105.709 106.285 108.209C112.663 110.71 119.023 109.999 124.548 107.982C130.878 105.672 135.982 101.803 139.388 98.8016C137.379 103.487 134.816 110.544 134.395 117.76C134.049 123.689 135.235 129.632 139.76 133.674C144.285 137.716 151.923 139.651 163.968 138.113C176.012 136.575 182.805 132.989 186.059 128.206C189.312 123.422 188.785 117.697 186.785 112.398C186.53 111.722 186.192 111.068 185.895 110.402C188.159 112.475 190.589 114.371 193.163 116.074C199.302 120.028 206.234 122.383 212.868 120.066C219.502 117.749 225.464 110.905 230.005 97.2823C234.536 83.679 234.266 74.6192 230.998 68.6817C227.732 62.7443 221.534 60.2253 215.008 59.5267C208.885 58.8708 202.438 59.7679 197.213 60.8648C200.624 58.908 203.76 56.5379 206.547 53.8119C210.437 49.8739 213.557 44.8909 213.947 38.9132C214.338 32.9356 211.971 26.0767 205.282 18.4832C198.565 10.8574 191.925 8.57206 185.971 9.81998C180.017 11.0679 174.967 15.6193 170.799 20.9891C166.694 26.4466 163.28 32.3597 160.632 38.6017C161.104 32.6213 161.237 24.415 159.229 16.8415C157.449 10.1415 153.938 4.04859 147.376 1.39952C144.651 0.343092 141.72 -0.124883 138.788 0.0284395ZM138.822 2.17634C141.447 2.02959 144.073 2.44066 146.515 3.38059C152.218 5.68241 155.388 11.0257 157.071 17.3742C160.438 30.0705 157.524 46.239 157.524 46.239C157.476 46.5057 157.534 46.7804 157.687 47.0074C157.839 47.2347 158.075 47.3979 158.347 47.4644C158.619 47.5308 158.907 47.4956 159.153 47.3658C159.4 47.236 159.586 47.0214 159.675 46.7644C159.675 46.7644 164.565 32.602 172.579 22.2735C176.584 17.1092 181.348 12.9846 186.443 11.9156C191.538 10.8467 197.186 12.6029 203.587 19.8707C210.017 27.1736 212.075 33.4382 211.726 38.7723C211.378 44.1062 208.591 48.6246 204.936 52.324C197.626 59.7221 186.98 63.6106 186.98 63.6106C186.707 63.7123 186.486 63.9143 186.365 64.1725C186.245 64.4308 186.235 64.7245 186.338 64.9897C186.441 65.2548 186.649 65.4701 186.915 65.5884C187.182 65.7067 187.486 65.7187 187.761 65.6216C187.761 65.6216 202.543 60.35 214.764 61.6587C220.874 62.3132 226.191 64.5119 229.038 69.6854C231.885 74.8591 232.326 83.3053 227.887 96.6222C223.456 109.927 217.819 116.054 212.109 118.048C206.398 120.042 200.234 118.048 194.397 114.288C189.538 111.158 185.226 106.908 181.603 102.943C179 99.1553 176.075 95.5838 172.858 92.265C172.663 92.0765 172.404 91.9644 172.129 91.95C171.854 91.9356 171.583 92.0202 171.369 92.1874C171.155 92.3547 171.013 92.5926 170.97 92.8551C170.927 93.1175 170.987 93.386 171.137 93.6088C173.833 97.3261 176.743 100.895 179.851 104.3C181.811 107.056 183.435 110.02 184.693 113.135C186.562 118.086 186.941 122.99 184.196 127.029C181.451 131.067 175.366 134.495 163.672 135.987C151.979 137.478 145.137 135.551 141.269 132.096C137.4 128.642 136.288 123.457 136.613 117.881C137.263 106.726 143.763 94.546 143.763 94.546C143.89 94.3117 143.922 94.0408 143.854 93.7849C143.787 93.5289 143.624 93.306 143.396 93.159C143.169 93.0117 142.894 92.9505 142.623 92.9869C142.352 93.0232 142.105 93.1545 141.928 93.3561C141.928 93.3561 134.086 102.204 123.758 105.972C118.594 107.857 112.888 108.478 107.12 106.22C101.353 103.962 95.4226 98.7573 89.9976 88.6578C84.5897 78.5899 84.7498 71.9901 87.6614 67.5146C90.5731 63.0391 96.5432 60.4488 103.374 59.1107C117.033 56.4336 133.647 58.7778 133.647 58.7778C133.918 58.817 134.194 58.7583 134.423 58.613C134.652 58.4677 134.817 58.2457 134.887 57.9901C134.957 57.7343 134.927 57.4627 134.803 57.2272C134.678 56.9916 134.468 56.8088 134.212 56.7136C134.212 56.7136 117.72 50.499 107.828 41.3203C102.882 36.7302 99.6989 31.5503 100.642 26.0918C101.586 20.6332 106.758 14.4573 119.502 8.08663C127.465 4.10587 133.798 2.36464 138.82 2.18135L138.822 2.17634Z" fill="#373841"/>
<path d="M158.175 52.4255C153.984 52.1736 149.025 53.5474 143.627 57.9828C139.239 61.5885 137.144 65.9302 136.812 70.1966C136.545 74.3926 137.77 78.5511 140.284 81.9836C142.609 85.3372 146.031 87.8426 150.003 89.0995C152.029 89.7097 154.174 89.859 156.269 89.5354C158.365 89.2118 160.354 88.4243 162.082 87.2344C169.582 82.2027 171.797 75.6501 169.852 70.427C167.907 65.2041 161.964 61.5491 154.181 61.8297C148.661 62.0311 145.275 65.5271 144.58 69.459C144.217 71.5412 144.551 73.6807 145.534 75.5668C146.517 77.4529 148.097 78.9873 150.046 79.9466C154.262 82.0458 157.68 80.8265 159.667 79.0444C160.898 77.9081 161.862 76.5288 162.492 75.0006C162.546 74.8675 162.573 74.7251 162.57 74.5818C162.567 74.4382 162.534 74.2969 162.474 74.166C162.414 74.0351 162.326 73.9173 162.218 73.8191C162.11 73.7212 161.982 73.6452 161.843 73.5956C161.703 73.546 161.555 73.5239 161.407 73.5305C161.258 73.5372 161.113 73.5724 160.979 73.6342C160.845 73.696 160.725 73.783 160.626 73.89C160.528 73.9972 160.452 74.1224 160.405 74.2582C159.887 75.4656 159.121 76.5587 158.152 77.4715C156.631 78.8353 154.603 79.7976 151.066 78.0379C149.534 77.2917 148.29 76.0907 147.517 74.6112C146.745 73.1318 146.484 71.4521 146.774 69.8192C147.314 66.7642 149.638 64.1444 154.265 63.9754C161.295 63.7191 166.187 66.9403 167.762 71.1544C169.337 75.3688 167.758 80.8107 160.815 85.4696C159.37 86.4857 157.696 87.1577 155.931 87.4315C154.165 87.7053 152.358 87.5726 150.655 87.0448C147.167 85.9226 144.164 83.7131 142.119 80.7635C139.896 77.734 138.808 74.0643 139.034 70.3583C139.323 66.6503 141.084 62.898 145.073 59.6189C153.19 52.9489 159.321 53.8347 163.741 56.203C166.541 57.7866 168.92 59.9777 170.689 62.603C170.762 62.7279 170.861 62.8376 170.978 62.9253C171.095 63.013 171.23 63.0772 171.373 63.114C171.517 63.1508 171.667 63.1594 171.814 63.1395C171.961 63.1193 172.102 63.0712 172.23 62.9977C172.357 62.9242 172.468 62.8267 172.556 62.7111C172.644 62.5955 172.707 62.4639 172.741 62.3246C172.775 62.185 172.78 62.0404 172.756 61.8988C172.731 61.7575 172.678 61.6224 172.598 61.5012C170.636 58.5448 167.97 56.0843 164.822 54.3251C162.781 53.2205 160.51 52.5715 158.175 52.4255Z" fill="#373841"/>
<path d="M177.105 58.2814C176.912 58.2871 176.724 58.341 176.559 58.438C176.395 58.5348 176.259 58.6714 176.165 58.8345C176.072 58.9973 176.024 59.1809 176.026 59.3672C176.028 59.5533 176.08 59.7358 176.178 59.8966C179.491 65.5527 179.673 72.0745 177.674 78.544C176.152 83.5221 172.848 87.9024 169.056 90.0709C165.264 92.2397 161.155 92.3837 157.123 88.9118C157.014 88.8179 156.887 88.7455 156.749 88.6989C156.611 88.6522 156.465 88.6323 156.319 88.6402C156.173 88.6482 156.03 88.6839 155.899 88.745C155.767 88.8061 155.649 88.8919 155.552 88.9971C155.454 89.1023 155.379 89.225 155.331 89.3581C155.283 89.4913 155.262 89.6324 155.27 89.7732C155.279 89.9141 155.315 90.0521 155.379 90.1793C155.442 90.3064 155.531 90.4203 155.64 90.5142C157.553 92.2844 160.026 93.3847 162.663 93.6394C165.3 93.8941 167.949 93.2887 170.188 91.9196C174.608 89.3951 178.143 84.6053 179.807 79.1569C181.934 72.2714 181.773 65.0854 178.116 58.8413C178.017 58.6675 177.871 58.5235 177.692 58.4249C177.514 58.3266 177.312 58.2776 177.106 58.2836L177.105 58.2814Z" fill="#373841"/>
<path d="M145.703 18.5148C141.31 18.4819 135.779 19.9525 128.768 23.455C119.423 28.1274 114.798 32.6623 113.315 37.1041C111.832 41.546 113.728 45.6299 116.695 48.8382C120.117 52.5375 124.452 55.0226 127.99 56.7459C123.39 56.6413 118.802 57.2365 114.394 58.5093C110.047 59.8561 106.021 62.2224 104.189 66.3291C102.358 70.436 102.849 76.0297 106.869 83.5124C110.866 90.9585 115.125 95.5034 119.34 98.0888C122.869 100.337 127.106 101.312 131.306 100.841C134.397 100.442 137.363 99.4087 140.005 97.8095C138.669 100.904 138.045 104.242 138.177 107.592C138.229 109.383 138.746 111.133 139.681 112.68C140.617 114.227 141.94 115.522 143.529 116.447C147.19 118.559 152.845 119.408 161.46 118.308C170.053 117.212 175.301 115.24 178.376 112.69C179.651 111.697 180.626 110.392 181.2 108.911C181.775 107.43 181.926 105.828 181.639 104.271C182.914 105.31 184.3 106.212 185.776 106.963C189.391 108.732 193.727 109.236 197.814 106.657C201.901 104.077 205.666 98.6636 208.913 88.9215C212.159 79.1793 212.506 72.6427 210.989 68.1864C210.379 66.2968 209.236 64.6082 207.689 63.3093C206.142 62.0104 204.251 61.1525 202.227 60.8313C199.078 60.3423 195.86 60.4614 192.758 61.1822C194.172 59.9867 195.405 58.6048 196.419 57.0768C198.439 53.9926 199.266 50.3194 198.757 46.704C198.197 42.5405 195.968 37.7542 191.182 32.3172C186.362 26.84 181.674 24.7652 177.416 25.0445C173.159 25.3236 169.57 27.8682 166.689 30.9791C164.223 33.7512 162.13 36.8126 160.459 40.0911C160.661 36.0416 160.132 31.9887 158.896 28.1139C157.442 24.0163 154.629 20.3233 149.732 19.021C148.418 18.6832 147.063 18.513 145.703 18.5148ZM145.67 20.6699C146.842 20.6647 148.009 20.8091 149.141 21.0995C153.227 22.1842 155.481 25.126 156.79 28.8154C159.409 36.1955 157.667 46.1597 157.667 46.1597C157.616 46.4255 157.672 46.7 157.822 46.9281C157.972 47.1563 158.206 47.3215 158.476 47.3906C158.747 47.46 159.034 47.4281 159.282 47.3016C159.529 47.1751 159.718 46.9631 159.811 46.7082C159.811 46.7082 163.01 38.1795 168.347 32.4169C171.017 29.5351 174.147 27.4164 177.567 27.1902C180.987 26.9638 184.936 28.5463 189.486 33.712C194.075 38.922 196.061 43.3331 196.55 46.9824C197.007 50.1065 196.29 53.2853 194.529 55.9434C192.411 58.9855 189.505 61.4394 186.099 63.0608C185.965 63.1173 185.844 63.1986 185.743 63.3002C185.641 63.4019 185.561 63.5217 185.508 63.6531C185.455 63.7845 185.428 63.9247 185.431 64.0658C185.434 64.2069 185.465 64.3462 185.524 64.4756C185.582 64.6049 185.666 64.7219 185.772 64.8198C185.877 64.9179 186.001 64.9948 186.137 65.0464C186.273 65.098 186.419 65.1232 186.565 65.1206C186.711 65.1179 186.855 65.0876 186.989 65.0311C186.989 65.0311 195.404 61.7163 201.796 62.9418C204.992 63.5548 207.601 65.1048 208.878 68.86C210.154 72.6154 209.963 78.7604 206.796 88.2663C203.628 97.7722 199.999 102.715 196.597 104.862C193.195 107.01 189.948 106.601 186.782 105.052C184.087 103.588 181.684 101.673 179.685 99.3954C178.417 97.3264 176.864 95.4331 175.068 93.7672C174.87 93.5933 174.613 93.4943 174.346 93.4883C174.078 93.4826 173.817 93.5701 173.61 93.7351C173.404 93.9001 173.267 94.1314 173.223 94.3865C173.179 94.6417 173.232 94.9035 173.372 95.1239C174.736 97.1026 176.249 98.9828 177.896 100.749C178.619 101.902 179.14 103.163 179.437 104.48C179.878 106.771 179.469 108.956 176.927 111.067C174.385 113.178 169.531 115.119 161.17 116.185C152.831 117.248 147.681 116.344 144.672 114.61C141.663 112.876 140.593 110.331 140.399 107.461C140.013 101.721 143.669 95.0803 143.669 95.0803C143.797 94.855 143.837 94.593 143.782 94.3418C143.727 94.0906 143.58 93.8669 143.369 93.7109C143.157 93.5552 142.895 93.4777 142.629 93.4923C142.364 93.5072 142.113 93.6133 141.921 93.7916C141.921 93.7916 137.353 97.9871 131.043 98.7174C127.351 99.1425 123.624 98.279 120.534 96.2831C116.743 93.9584 112.714 89.7378 108.843 82.5316C104.996 75.3676 104.748 70.5118 106.233 67.1832C107.717 63.8549 111.064 61.8013 115.073 60.5591C123.09 58.0756 133.293 59.0894 133.293 59.0894C133.562 59.1187 133.833 59.052 134.055 58.902C134.277 58.7521 134.435 58.529 134.499 58.2747C134.562 58.0204 134.528 57.7524 134.402 57.5212C134.275 57.2897 134.066 57.1109 133.812 57.0181C133.812 57.0181 123.702 53.1941 118.354 47.4125C115.679 44.5217 114.236 41.3555 115.434 37.768C116.632 34.1803 120.707 29.9094 129.791 25.3674C136.602 21.9622 141.782 20.6527 145.67 20.6699Z" fill="#373841"/>
<path d="M16.5105 139.926C12.1808 135.115 13.1732 124.556 18.1562 120.376C23.1392 116.195 30.2307 119.974 34.5611 124.786C35.5973 125.929 36.3894 127.259 36.8925 128.698C37.3953 130.138 37.5988 131.659 37.4915 133.175C37.384 134.69 36.9679 136.17 36.2666 137.53C35.5654 138.89 34.593 140.103 33.4052 141.1C32.2173 142.096 30.8375 142.856 29.3448 143.337C27.8519 143.817 26.2756 144.008 24.706 143.899C23.1366 143.79 21.6046 143.383 20.1984 142.702C18.7922 142.02 17.5384 141.076 16.5105 139.926Z" fill="#BFC4BC"/>
<path d="M15.3135 132.22C16.5788 133.625 18.2456 134.639 20.1029 135.132C21.9602 135.626 23.9247 135.577 25.7479 134.992C27.5712 134.407 29.1714 133.312 30.3462 131.846C31.5207 130.38 32.2171 128.608 32.3472 126.755C32.437 125.524 32.2732 124.287 31.865 123.116C31.4569 121.944 30.8126 120.862 29.9695 119.93C28.0758 117.74 25.6575 116.03 22.926 114.948C21.8506 114.539 20.6934 114.376 19.5443 114.47C18.4842 114.583 17.4889 115.014 16.6977 115.701C15.6567 116.633 14.8463 117.779 14.3261 119.056C13.6837 120.565 13.2904 122.164 13.1603 123.792C13.0117 125.408 13.1318 127.037 13.516 128.618C13.8153 129.937 14.4311 131.171 15.3135 132.22ZM13.6376 133.625C9.29708 128.804 10.2617 118.247 15.2345 114.077C20.2074 109.907 27.3043 113.704 31.6453 118.525C33.7302 120.841 34.781 123.857 34.5667 126.91C34.3523 129.964 32.8902 132.804 30.5023 134.806C28.1144 136.809 24.9959 137.809 21.8332 137.588C18.6705 137.366 15.7225 135.941 13.6376 133.625Z" fill="#373841"/>
<path d="M55.4898 193.98C56.7551 195.385 58.4218 196.399 60.2792 196.893C62.1366 197.386 64.101 197.337 65.9243 196.752C67.7475 196.167 69.3477 195.072 70.5223 193.606C71.6971 192.14 72.3934 190.368 72.5236 188.515C72.6134 187.284 72.4495 186.047 72.0414 184.876C71.6332 183.705 70.989 182.622 70.1459 181.691C68.2521 179.501 65.8336 177.79 63.1021 176.708C62.0268 176.299 60.8696 176.136 59.7205 176.23C58.6606 176.343 57.6651 176.774 56.8739 177.461C55.833 178.393 55.0225 179.54 54.5024 180.816C53.8599 182.325 53.4666 183.924 53.3365 185.553C53.1879 187.168 53.3081 188.797 53.6923 190.379C53.9916 191.697 54.6073 192.931 55.4898 193.98ZM53.8138 195.385C49.4734 190.564 50.438 180.007 55.4107 175.837C60.3836 171.668 67.4806 175.464 71.8217 180.285C73.9065 182.601 74.9571 185.617 74.743 188.671C74.5286 191.724 73.0665 194.564 70.6786 196.567C68.2907 198.569 65.1723 199.569 62.0095 199.348C58.8468 199.126 55.8986 197.701 53.8138 195.385Z" fill="#373841"/>
<path d="M61.0244 189.168C62.0241 190.279 63.4378 190.962 64.9545 191.069C66.4711 191.175 67.9664 190.695 69.1115 189.735C70.2566 188.775 70.9576 187.413 71.0605 185.949C71.1631 184.485 70.6594 183.038 69.6596 181.928C68.4828 180.562 66.9794 179.494 65.2804 178.817C64.6716 178.584 64.0158 178.489 63.3642 178.54C62.808 178.6 62.2861 178.827 61.8717 179.189C60.7544 180.126 59.947 182.007 59.7674 184.091C59.588 186.175 60.0753 188.114 61.0244 189.168ZM59.3486 190.574C56.459 187.364 57.1015 180.337 60.4114 177.562C63.7212 174.786 68.4458 177.313 71.3354 180.522C72.7232 182.064 73.4227 184.072 73.2801 186.104C73.1373 188.136 72.1641 190.027 70.5745 191.36C68.9849 192.693 66.9094 193.359 64.8039 193.211C62.6987 193.064 60.7364 192.115 59.3486 190.574Z" fill="#373841"/>
<path d="M37.64 105.172C39.0997 105.544 40.6598 105.333 41.9771 104.587C43.2945 103.84 44.2608 102.619 44.6641 101.192C45.0674 99.7651 44.8741 98.2489 44.1269 96.9772C43.38 95.7056 42.1403 94.7823 40.6804 94.4111C38.9292 93.9256 37.0763 93.8664 35.283 94.239C34.6458 94.3808 34.0485 94.6627 33.5373 95.0634C33.1108 95.4198 32.8075 95.8956 32.6698 96.4239C32.2763 97.8163 32.6762 99.8216 33.712 101.65C34.748 103.478 36.2544 104.82 37.64 105.172ZM37.0501 107.261C32.831 106.187 29.3692 100.002 30.5344 95.8768C31.6999 91.7521 37.0514 91.2489 41.2706 92.3225C43.2969 92.838 45.0177 94.1194 46.0548 95.8848C47.0919 97.65 47.3602 99.7547 46.8004 101.736C46.2408 103.717 44.8991 105.412 43.0705 106.448C41.242 107.484 39.0764 107.777 37.0501 107.261Z" fill="#373841"/>
<path d="M33.1067 128.171C32.8568 128.175 32.6159 128.261 32.4223 128.413C32.2288 128.566 32.0942 128.777 32.0403 129.013C31.9862 129.248 32.0157 129.494 32.1243 129.712C32.233 129.929 32.4141 130.104 32.6387 130.21C32.6387 130.21 39.128 133.356 52.4603 135.249C65.7925 137.142 86.0635 137.831 113.927 133.081C114.075 133.06 114.216 133.012 114.344 132.937C114.471 132.863 114.582 132.764 114.669 132.648C114.756 132.531 114.818 132.399 114.852 132.259C114.885 132.119 114.889 131.973 114.863 131.832C114.837 131.69 114.782 131.555 114.701 131.434C114.62 131.314 114.515 131.21 114.391 131.129C114.268 131.049 114.129 130.993 113.983 130.965C113.837 130.937 113.687 130.938 113.541 130.967C85.8959 135.68 65.871 134.984 52.7835 133.125C39.696 131.266 33.643 128.293 33.643 128.293C33.4776 128.21 33.2931 128.168 33.1067 128.171Z" fill="#373841"/>
<path d="M60.9612 105.648C60.712 105.658 60.4734 105.75 60.2843 105.907C60.0952 106.064 59.9662 106.277 59.9181 106.514C59.87 106.75 59.9057 106.995 60.0192 107.21C60.1327 107.424 60.3178 107.596 60.5444 107.696C60.5444 107.696 71.2415 112.615 83.0239 119.311C94.1483 125.635 105.52 133.082 106.835 133.945C102.831 140.731 98.3098 147.219 93.308 153.357C85.2701 163.01 69.0124 176.567 69.0124 176.567C68.9015 176.659 68.8108 176.771 68.745 176.898C68.6791 177.023 68.6399 177.161 68.629 177.301C68.6182 177.442 68.6361 177.583 68.682 177.717C68.7277 177.851 68.8004 177.975 68.8957 178.082C68.9913 178.189 69.1075 178.277 69.238 178.34C69.3684 178.404 69.5107 178.442 69.6564 178.452C69.802 178.462 69.9486 178.445 70.0874 178.401C70.2259 178.357 70.3545 178.287 70.4651 178.194C70.4651 178.194 86.7358 164.681 95.0486 154.695L95.0546 154.687C100.351 148.207 105.118 141.341 109.314 134.15C109.451 133.916 109.491 133.64 109.428 133.379C109.365 133.117 109.202 132.887 108.972 132.736C108.972 132.736 96.0314 124.21 84.1519 117.459C72.2724 110.707 61.5003 105.755 61.5003 105.755C61.333 105.676 61.1474 105.64 60.9612 105.648Z" fill="#373841"/>
<path d="M31.0218 102.889C32.287 104.294 33.9538 105.308 35.8112 105.801C37.6683 106.295 39.633 106.246 41.4563 105.661C43.2795 105.076 44.8797 103.981 46.0543 102.515C47.2288 101.049 47.9254 99.2772 48.0553 97.4241C48.1453 96.1934 47.9815 94.9565 47.5734 93.7849C47.1652 92.6136 46.5207 91.5309 45.6776 90.5995C43.7841 88.4097 41.3656 86.6988 38.634 85.6169C37.5588 85.2085 36.4015 85.0448 35.2525 85.1385C34.1923 85.2519 33.1971 85.6825 32.4059 86.3705C31.3648 87.3024 30.5545 88.4487 30.0344 89.7252C29.3919 91.2345 28.9986 92.8327 28.8685 94.4616C28.7199 96.0771 28.8401 97.7062 29.2243 99.2874C29.5236 100.606 30.1392 101.84 31.0218 102.889ZM29.3458 104.294C25.0054 99.473 25.97 88.9163 30.9427 84.7464C35.9156 80.5766 43.0126 84.3725 47.3534 89.1942C49.4383 91.5099 50.4891 94.5261 50.2747 97.5795C50.0604 100.633 48.5985 103.473 46.2106 105.475C43.8224 107.478 40.7043 108.478 37.5415 108.257C34.3788 108.035 31.4306 106.61 29.3458 104.294Z" fill="#373841"/>
<path d="M142.845 154.061C146.083 153.453 150.568 156.504 151.198 159.631C151.828 162.758 148.361 164.775 145.124 165.382C143.569 165.674 141.958 165.358 140.644 164.503C139.331 163.647 138.423 162.323 138.121 160.822C137.819 159.321 138.146 157.765 139.032 156.497C139.918 155.229 141.29 154.353 142.845 154.061Z" fill="#D4CFE8"/>
<path d="M154.407 163.821C155.964 163.529 158.118 164.997 158.422 166.501C158.725 168.005 157.058 168.975 155.504 169.268C154.756 169.408 153.98 169.256 153.348 168.844C152.717 168.433 152.28 167.796 152.134 167.074C151.989 166.352 152.147 165.603 152.573 164.993C152.999 164.383 153.659 163.962 154.407 163.821Z" fill="#373841"/>
</g>
<defs>
<clipPath id="clip0_7_738">
<rect width="235" height="206" fill="white" transform="translate(0.0126953)"/>
</clipPath>
</defs>
</svg>
