<svg width="134" height="102" viewBox="0 0 134 102" fill="none" xmlns="http://www.w3.org/2000/svg">
<path d="M15.3939 13.0789H16.0002L22.2573 0H31.394L20.4819 20.4237V30.7966H10.9122V20.4237L0 0H9.13675L15.3939 13.0789ZM62.8314 26.7591L58.2197 31.2261L54.6689 27.5322C54.4669 27.8615 54.0339 28.2982 53.3699 28.8423C52.8791 29.2575 52.3162 29.6297 51.6811 29.959C51.0171 30.317 50.1655 30.6176 49.1262 30.8611C48.1015 31.1044 47.0406 31.2261 45.9436 31.2261C41.8443 31.2261 38.7626 30.3528 36.6985 28.6061C34.6345 26.8594 33.6024 24.5399 33.6024 21.6478C33.6024 20.1875 33.8406 18.8631 34.3169 17.6748C34.7933 16.4864 35.3634 15.5845 36.0273 14.9688C37.4707 13.6373 38.7049 12.8427 39.7297 12.5849L40.4442 12.4131V12.1554L35.248 6.61462V0H57.9166V6.52867H44.7311V6.82938L51.1614 14.0453V10.1581H57.5485V20.8962L62.8314 26.7591ZM46.1601 24.2035C47.0116 24.2035 47.7767 24.0674 48.4551 23.7954C49.1335 23.5091 49.5665 23.2012 49.7542 22.8719L50.0572 22.4854L45.4456 17.5674C45.2147 17.5674 44.8177 17.6605 44.2548 17.8466C43.8506 17.9754 43.5114 18.1472 43.2371 18.362C42.9052 18.6054 42.6237 18.9633 42.3928 19.4358C42.1619 19.9083 42.0464 20.4237 42.0464 20.9821C42.0464 22.0273 42.4072 22.829 43.1289 23.3874C43.865 23.9315 44.8755 24.2035 46.1601 24.2035ZM79.113 20.6814H73.9384V30.7966H65.5161V0H79.4811C84.1288 0 87.4703 0.816083 89.5055 2.4483C91.5407 4.08045 92.5583 6.65039 92.5583 10.1581C92.5583 11.4324 92.3851 12.6208 92.0387 13.7232C91.7067 14.8113 91.2665 15.6775 90.718 16.3217C89.6498 17.5817 88.6972 18.4193 87.86 18.8345L87.3187 19.0493V19.1781L94.9399 30.7966H85.5866L79.113 20.6814ZM73.9384 13.7232H79.4811C82.2813 13.7232 83.6814 12.5921 83.6814 10.3299C83.6814 8.08212 82.2813 6.95826 79.4811 6.95826H73.9384V13.7232ZM8.73374 51.8319H5.43807V39.7811H15.5708V42.403H8.73374V45.1678H14.3507V47.6468H8.73374V51.8319ZM20.1759 49.0755H26.9791V51.8319H16.8802V39.7811H20.1759V49.0755ZM38.3449 41.2601C39.4915 42.3638 40.0648 43.8792 40.0648 45.8064C40.0648 47.7281 39.4915 49.2407 38.3449 50.3444C37.187 51.4481 35.6226 52 33.6514 52C31.6689 52 30.1044 51.4481 28.9578 50.3444C27.8056 49.2407 27.2295 47.7281 27.2295 45.8064C27.2295 43.8737 27.8056 42.3582 28.9578 41.2601C30.0987 40.162 31.6633 39.613 33.6514 39.613C35.6338 39.613 37.1984 40.162 38.3449 41.2601ZM33.6429 49.1847C34.62 49.1847 35.3571 48.871 35.8541 48.2436C36.3511 47.6161 36.5997 46.8037 36.5997 45.8064C36.5997 44.8093 36.3511 43.9969 35.8541 43.3694C35.3514 42.7475 34.6144 42.4366 33.6429 42.4366C32.6714 42.4366 31.9371 42.7475 31.4401 43.3694C30.9431 43.9969 30.6946 44.8093 30.6946 45.8064C30.6946 46.8037 30.9431 47.6161 31.4401 48.2436C31.9371 48.871 32.6714 49.1847 33.6429 49.1847ZM52.1423 39.7811L53.8792 48.42H54.074L55.7515 39.7811H59.1573L56.4293 51.8319H51.6425L49.9396 43.277H49.7871L48.0842 51.8319H43.2974L40.5694 39.7811H43.9752L45.6527 48.42H45.8476L47.5843 39.7811H52.1423ZM70.7434 51.8319H60.3735V39.7811H70.7434V42.403H63.6693V44.4283H69.5659V46.9074H63.6693V49.2184H70.7434V51.8319ZM77.7971 47.8738H75.7722V51.8319H72.4765V39.7811H77.9411C79.7598 39.7811 81.0673 40.1004 81.8637 40.739C82.6601 41.3778 83.0583 42.3834 83.0583 43.756C83.0583 44.2546 82.9905 44.7196 82.8549 45.151C82.7251 45.5768 82.5528 45.9157 82.3381 46.1679C81.9202 46.6609 81.5474 46.9886 81.2198 47.1511L81.008 47.2351V47.2855L83.9902 51.8319H80.3302L77.7971 47.8738ZM75.7722 45.151H77.9411C79.0368 45.151 79.5846 44.7084 79.5846 43.8232C79.5846 42.9436 79.0368 42.5038 77.9411 42.5038H75.7722V45.151ZM95.4408 43.2938V43.6047H91.9757V43.2938C91.9757 42.9409 91.8176 42.6635 91.5013 42.4618C91.185 42.2602 90.7246 42.1593 90.1203 42.1593C89.5329 42.1593 89.0754 42.2573 88.7479 42.4534C88.4259 42.6439 88.2649 42.9017 88.2649 43.2266C88.2649 43.5179 88.4569 43.7532 88.841 43.9325C89.2082 44.1006 89.6826 44.2154 90.2643 44.277C90.8405 44.3387 91.4618 44.4395 92.1282 44.5795C92.806 44.7308 93.4301 44.9157 94.0006 45.1342C94.5766 45.3583 95.0539 45.7308 95.4323 46.2519C95.8108 46.7785 96 47.434 96 48.2183C96 49.4117 95.5058 50.3389 94.5174 51C93.5233 51.6666 92.1028 52 90.2559 52C88.375 52 86.9461 51.6722 85.9689 51.0168C84.9975 50.3557 84.5117 49.3949 84.5117 48.1343V47.6468H87.9853V48.1511C87.9853 49.0251 88.7422 49.4593 90.2559 49.4537C90.928 49.4537 91.4758 49.3528 91.8995 49.1512C92.3175 48.955 92.5264 48.6497 92.5264 48.2352C92.5264 47.9326 92.3372 47.6946 91.9588 47.5208C91.569 47.3415 91.0918 47.2183 90.527 47.1511C89.9566 47.0839 89.3352 46.9746 88.6631 46.8233C87.9797 46.6665 87.3583 46.4816 86.7993 46.2686C86.2288 46.0614 85.7516 45.6945 85.3674 45.1678C84.9834 44.6524 84.7914 44.0165 84.7914 43.2602C84.7914 42.1341 85.2517 41.2433 86.1723 40.5878C87.0986 39.9379 88.4146 39.613 90.1203 39.613C91.8487 39.613 93.1674 39.9296 94.0768 40.5626C94.9861 41.1901 95.4408 42.1005 95.4408 43.2938Z" fill="white"/>
<path opacity="0.6" d="M3 79.6364C3 79.1705 3.11364 78.7457 3.34091 78.3622C3.56818 77.9787 3.87358 77.6733 4.2571 77.446C4.64063 77.2187 5.06534 77.1051 5.53125 77.1051C5.93466 77.1051 6.30682 77.1918 6.64773 77.3651C6.99148 77.5384 7.27557 77.7756 7.5 78.0767C7.72443 78.375 7.86364 78.7131 7.91761 79.0909H6.88636C6.82955 78.7983 6.67188 78.5597 6.41335 78.375C6.15483 78.1875 5.8608 78.0938 5.53125 78.0938C5.24716 78.0938 4.98864 78.1634 4.75568 78.3026C4.52273 78.4418 4.33665 78.6278 4.19744 78.8608C4.05824 79.0937 3.98864 79.3523 3.98864 79.6364C3.98864 79.9205 4.05824 80.179 4.19744 80.4119C4.33665 80.6449 4.52273 80.831 4.75568 80.9702C4.98864 81.1094 5.24716 81.179 5.53125 81.179C5.8608 81.179 6.1392 81.0866 6.36648 80.902C6.59659 80.7145 6.74148 80.4744 6.80114 80.1818H7.83239C7.77841 80.5597 7.64631 80.8991 7.43608 81.2003C7.22585 81.4986 6.95597 81.7344 6.62642 81.9077C6.29972 82.081 5.93466 82.1676 5.53125 82.1676C5.06534 82.1676 4.64063 82.054 4.2571 81.8267C3.87358 81.5994 3.56818 81.294 3.34091 80.9105C3.11364 80.527 3 80.1023 3 79.6364ZM5.48864 84.1364C4.86932 84.1364 4.28693 84.0199 3.74148 83.7869C3.19886 83.554 2.72017 83.2315 2.3054 82.8196C1.89347 82.4048 1.5696 81.9261 1.33381 81.3835C1.10085 80.8409 0.985795 80.2585 0.988636 79.6364C0.991477 79.0142 1.10938 78.4318 1.34233 77.8892C1.57813 77.3466 1.90199 76.8693 2.31392 76.4574C2.72585 76.0426 3.20313 75.7187 3.74574 75.4858C4.28835 75.2528 4.86932 75.1364 5.48864 75.1364C6.1108 75.1364 6.69318 75.2528 7.2358 75.4858C7.78125 75.7187 8.25852 76.0426 8.66761 76.4574C9.07955 76.8693 9.40199 77.3466 9.63494 77.8892C9.8679 78.4318 9.9858 79.0142 9.98864 79.6364C9.99148 80.2585 9.87642 80.8409 9.64347 81.3835C9.41051 81.9261 9.08807 82.4048 8.67614 82.8196C8.2642 83.2315 7.78551 83.554 7.24006 83.7869C6.6946 84.0199 6.1108 84.1364 5.48864 84.1364ZM5.48864 83.1477C5.97443 83.1477 6.4304 83.0568 6.85653 82.875C7.28267 82.6932 7.65625 82.4418 7.97727 82.1207C8.2983 81.7997 8.54972 81.4276 8.73153 81.0043C8.91335 80.5781 9.00284 80.1236 9 79.6406C8.99716 79.1548 8.90483 78.6989 8.72301 78.2727C8.54119 77.8466 8.28977 77.473 7.96875 77.152C7.64773 76.831 7.27557 76.5795 6.85227 76.3977C6.42898 76.2159 5.97443 76.125 5.48864 76.125C5.00568 76.125 4.55256 76.2159 4.12926 76.3977C3.70597 76.5795 3.33381 76.8324 3.01278 77.1562C2.69176 77.4773 2.43892 77.8509 2.25426 78.277C2.07244 78.7003 1.98011 79.1548 1.97727 79.6406C1.97443 80.1207 2.06392 80.5739 2.24574 81C2.42756 81.4233 2.67898 81.7955 3 82.1165C3.32386 82.4375 3.69744 82.6903 4.12074 82.875C4.54688 83.0568 5.00284 83.1477 5.48864 83.1477ZM14.6623 75.2727H15.8725L18.293 79.3466H18.3952L20.8157 75.2727H22.0259L18.8725 80.4034V84H17.8157V80.4034L14.6623 75.2727ZM24.978 84.1193C24.4041 84.1193 23.9098 84.0142 23.495 83.804C23.0803 83.5937 22.7607 83.3054 22.5362 82.9389C22.3118 82.5724 22.1996 82.1534 22.1996 81.6818C22.1996 81.3182 22.2763 80.9957 22.4297 80.7145C22.5859 80.4304 22.8004 80.1676 23.0732 79.9261C23.3487 79.6818 23.6655 79.4375 24.0234 79.1932L25.2848 78.2557C25.532 78.0937 25.7294 77.9205 25.8771 77.7358C26.0277 77.5511 26.103 77.3097 26.103 77.0114C26.103 76.7898 26.005 76.5753 25.8089 76.3679C25.6158 76.1605 25.3615 76.0568 25.0462 76.0568C24.8246 76.0568 24.6286 76.1136 24.4581 76.2273C24.2905 76.3381 24.1584 76.4801 24.0618 76.6534C23.968 76.8239 23.9212 77 23.9212 77.1818C23.9212 77.3864 23.9766 77.5938 24.0874 77.804C24.201 78.0114 24.3445 78.2244 24.5178 78.4432C24.6939 78.6591 24.8757 78.8807 25.0632 79.108L29.0689 84H27.8587L24.5518 80.0114C24.245 79.642 23.9666 79.3068 23.7166 79.0057C23.4666 78.7045 23.2678 78.4077 23.12 78.1151C22.9723 77.8224 22.8984 77.5057 22.8984 77.1648C22.8984 76.7727 22.9851 76.429 23.1584 76.1335C23.3345 75.8352 23.5803 75.6037 23.8956 75.4389C24.2138 75.2713 24.5859 75.1875 25.0121 75.1875C25.4496 75.1875 25.826 75.2727 26.1413 75.4432C26.4567 75.6108 26.6996 75.8338 26.87 76.1122C27.0405 76.3878 27.1257 76.6875 27.1257 77.0114C27.1257 77.429 27.022 77.7912 26.8146 78.098C26.6072 78.4048 26.3246 78.6903 25.9666 78.9545L24.228 80.25C23.8359 80.5398 23.5703 80.821 23.4311 81.0938C23.2919 81.3665 23.2223 81.5625 23.2223 81.6818C23.2223 81.9545 23.2933 82.2088 23.4354 82.4446C23.5774 82.6804 23.7777 82.8707 24.0362 83.0156C24.2947 83.1605 24.5973 83.233 24.9439 83.233C25.2734 83.233 25.5945 83.1634 25.907 83.0241C26.2195 82.8821 26.5021 82.6776 26.755 82.4105C27.0107 82.1435 27.2124 81.8224 27.3601 81.4474C27.5107 81.0724 27.5859 80.6506 27.5859 80.1818H28.5575C28.5575 80.7614 28.4908 81.2344 28.3572 81.6009C28.2237 81.9673 28.0732 82.2543 27.9055 82.4616C27.7379 82.669 27.603 82.8239 27.5007 82.9261C27.4666 82.9687 27.4354 83.0114 27.407 83.054C27.3786 83.0966 27.3473 83.1392 27.3132 83.1818C27.032 83.4972 26.6768 83.733 26.2479 83.8892C25.8189 84.0426 25.3956 84.1193 24.978 84.1193ZM30.3185 84V75.2727H33.2674C33.9492 75.2727 34.5089 75.3892 34.9464 75.6222C35.3839 75.8523 35.7077 76.169 35.918 76.5724C36.1282 76.9759 36.2333 77.4347 36.2333 77.9489C36.2333 78.4631 36.1282 78.919 35.918 79.3168C35.7077 79.7145 35.3853 80.027 34.9506 80.2543C34.516 80.4787 33.9606 80.5909 33.2844 80.5909H30.8981V79.6364H33.2504C33.7163 79.6364 34.0913 79.5682 34.3754 79.4318C34.6623 79.2955 34.8697 79.1023 34.9975 78.8523C35.1282 78.5994 35.1935 78.2983 35.1935 77.9489C35.1935 77.5994 35.1282 77.294 34.9975 77.0327C34.8668 76.7713 34.658 76.5696 34.3711 76.4276C34.0842 76.2827 33.7049 76.2102 33.2333 76.2102H31.3754V84H30.3185ZM34.4265 80.0795L36.5742 84H35.3469L33.2333 80.0795H34.4265ZM39.358 82.8068L39.2898 83.267C39.2415 83.5909 39.1676 83.9375 39.0682 84.3068C38.9716 84.6761 38.8707 85.0241 38.7656 85.3509C38.6605 85.6776 38.5739 85.9375 38.5057 86.1307H37.7386C37.7756 85.9489 37.8239 85.7088 37.8835 85.4105C37.9432 85.1122 38.0028 84.7784 38.0625 84.4091C38.125 84.0426 38.1761 83.6676 38.2159 83.2841L38.267 82.8068H39.358ZM44.5792 84V83.233L47.4599 80.0795C47.7979 79.7102 48.0763 79.3892 48.2951 79.1165C48.5138 78.8409 48.6758 78.5824 48.7809 78.3409C48.8888 78.0966 48.9428 77.8409 48.9428 77.5739C48.9428 77.267 48.869 77.0014 48.7212 76.777C48.5763 76.5526 48.3775 76.3793 48.1246 76.2571C47.8718 76.1349 47.5877 76.0739 47.2724 76.0739C46.9371 76.0739 46.6445 76.1435 46.3945 76.2827C46.1474 76.419 45.9556 76.6108 45.8192 76.858C45.6857 77.1051 45.619 77.3949 45.619 77.7273H44.6133C44.6133 77.2159 44.7312 76.767 44.967 76.3807C45.2028 75.9943 45.5238 75.6932 45.93 75.4773C46.3391 75.2614 46.7979 75.1534 47.3065 75.1534C47.8178 75.1534 48.271 75.2614 48.6658 75.4773C49.0607 75.6932 49.3704 75.9844 49.5948 76.3509C49.8192 76.7173 49.9315 77.125 49.9315 77.5739C49.9315 77.8949 49.8732 78.2088 49.7567 78.5156C49.6431 78.8196 49.4442 79.1591 49.1602 79.5341C48.8789 79.9062 48.4883 80.3608 47.9883 80.8977L46.0281 82.9943V83.0625H50.0849V84H44.5792ZM54.6914 84.1193C54.0494 84.1193 53.5025 83.9446 53.0508 83.5952C52.5991 83.2429 52.2539 82.733 52.0153 82.0653C51.7766 81.3949 51.6573 80.5852 51.6573 79.6364C51.6573 78.6932 51.7766 77.8878 52.0153 77.2202C52.2567 76.5497 52.6033 76.0384 53.055 75.6861C53.5096 75.331 54.055 75.1534 54.6914 75.1534C55.3278 75.1534 55.8718 75.331 56.3235 75.6861C56.7781 76.0384 57.1246 76.5497 57.3633 77.2202C57.6048 77.8878 57.7255 78.6932 57.7255 79.6364C57.7255 80.5852 57.6062 81.3949 57.3675 82.0653C57.1289 82.733 56.7837 83.2429 56.332 83.5952C55.8803 83.9446 55.3335 84.1193 54.6914 84.1193ZM54.6914 83.1818C55.3278 83.1818 55.8221 82.875 56.1744 82.2614C56.5266 81.6477 56.7028 80.7727 56.7028 79.6364C56.7028 78.8807 56.6218 78.2372 56.4599 77.706C56.3008 77.1747 56.0707 76.7699 55.7695 76.4915C55.4712 76.2131 55.1119 76.0739 54.6914 76.0739C54.0607 76.0739 53.5678 76.3849 53.2127 77.0071C52.8576 77.6264 52.68 78.5028 52.68 79.6364C52.68 80.392 52.7596 81.0341 52.9187 81.5625C53.0778 82.0909 53.3065 82.4929 53.6048 82.7685C53.9059 83.044 54.2681 83.1818 54.6914 83.1818ZM59.3448 84V83.233L62.2255 80.0795C62.5636 79.7102 62.842 79.3892 63.0607 79.1165C63.2795 78.8409 63.4414 78.5824 63.5465 78.3409C63.6545 78.0966 63.7085 77.8409 63.7085 77.5739C63.7085 77.267 63.6346 77.0014 63.4869 76.777C63.342 76.5526 63.1431 76.3793 62.8903 76.2571C62.6374 76.1349 62.3533 76.0739 62.038 76.0739C61.7028 76.0739 61.4102 76.1435 61.1602 76.2827C60.913 76.419 60.7212 76.6108 60.5849 76.858C60.4513 77.1051 60.3846 77.3949 60.3846 77.7273H59.3789C59.3789 77.2159 59.4968 76.767 59.7326 76.3807C59.9684 75.9943 60.2894 75.6932 60.6957 75.4773C61.1048 75.2614 61.5636 75.1534 62.0721 75.1534C62.5835 75.1534 63.0366 75.2614 63.4315 75.4773C63.8263 75.6932 64.136 75.9844 64.3604 76.3509C64.5849 76.7173 64.6971 77.125 64.6971 77.5739C64.6971 77.8949 64.6388 78.2088 64.5224 78.5156C64.4087 78.8196 64.2099 79.1591 63.9258 79.5341C63.6445 79.9062 63.2539 80.3608 62.7539 80.8977L60.7937 82.9943V83.0625H64.8505V84H59.3448ZM66.2184 82.2102V81.3409L70.0536 75.2727H70.6843V76.6193H70.2582L67.3604 81.2045V81.2727H72.5252V82.2102H66.2184ZM70.3263 84V81.946V81.5412V75.2727H71.332V84H70.3263ZM3.75 99H1.05682V90.2727H3.86932C4.71591 90.2727 5.44034 90.4474 6.04261 90.7969C6.64489 91.1435 7.10653 91.642 7.42756 92.2926C7.74858 92.9403 7.90909 93.7159 7.90909 94.6193C7.90909 95.5284 7.74716 96.3111 7.4233 96.9673C7.09943 97.6207 6.62784 98.1236 6.00852 98.4759C5.3892 98.8253 4.63636 99 3.75 99ZM2.11364 98.0625H3.68182C4.40341 98.0625 5.00142 97.9233 5.47585 97.6449C5.95028 97.3665 6.30398 96.9702 6.53693 96.456C6.76989 95.9418 6.88636 95.3295 6.88636 94.6193C6.88636 93.9148 6.77131 93.3082 6.54119 92.7997C6.31108 92.2884 5.96733 91.8963 5.50994 91.6236C5.05256 91.348 4.48295 91.2102 3.80114 91.2102H2.11364V98.0625ZM12.2898 99.1364C11.6591 99.1364 11.1151 98.9972 10.6577 98.7188C10.2031 98.4375 9.85227 98.0455 9.60511 97.5426C9.3608 97.0369 9.23864 96.4489 9.23864 95.7784C9.23864 95.108 9.3608 94.517 9.60511 94.0057C9.85227 93.4915 10.196 93.0909 10.6364 92.804C11.0795 92.5142 11.5966 92.3693 12.1875 92.3693C12.5284 92.3693 12.8651 92.4261 13.1974 92.5398C13.5298 92.6534 13.8324 92.8381 14.1051 93.0938C14.3778 93.3466 14.5952 93.6818 14.7571 94.0994C14.919 94.517 15 95.0312 15 95.642V96.0682H9.95455V95.1989H13.9773C13.9773 94.8295 13.9034 94.5 13.7557 94.2102C13.6108 93.9205 13.4034 93.6918 13.1335 93.5241C12.8665 93.3565 12.5511 93.2727 12.1875 93.2727C11.7869 93.2727 11.4403 93.3722 11.1477 93.571C10.858 93.767 10.6349 94.0227 10.4787 94.3381C10.3224 94.6534 10.2443 94.9915 10.2443 95.3523V95.9318C10.2443 96.4261 10.3295 96.8452 10.5 97.1889C10.6733 97.5298 10.9134 97.7898 11.2202 97.9688C11.527 98.1449 11.8835 98.233 12.2898 98.233C12.554 98.233 12.7926 98.196 13.0057 98.1222C13.2216 98.0455 13.4077 97.9318 13.5639 97.7812C13.7202 97.6278 13.8409 97.4375 13.9261 97.2102L14.8977 97.483C14.7955 97.8125 14.6236 98.1023 14.3821 98.3523C14.1406 98.5994 13.8423 98.7926 13.4872 98.9318C13.1321 99.0682 12.733 99.1364 12.2898 99.1364ZM21.1662 93.9205L20.2628 94.1761C20.206 94.0256 20.1222 93.8793 20.0114 93.7372C19.9034 93.5923 19.7557 93.473 19.5682 93.3793C19.3807 93.2855 19.1406 93.2386 18.848 93.2386C18.4474 93.2386 18.1136 93.331 17.8466 93.5156C17.5824 93.6974 17.4503 93.929 17.4503 94.2102C17.4503 94.4602 17.5412 94.6577 17.723 94.8026C17.9048 94.9474 18.1889 95.0682 18.5753 95.1648L19.5469 95.4034C20.1321 95.5455 20.5682 95.7628 20.8551 96.0554C21.142 96.3452 21.2855 96.7187 21.2855 97.1761C21.2855 97.5511 21.1776 97.8864 20.9616 98.1818C20.7486 98.4773 20.4503 98.7102 20.0668 98.8807C19.6832 99.0511 19.2372 99.1364 18.7287 99.1364C18.0611 99.1364 17.5085 98.9915 17.071 98.7017C16.6335 98.4119 16.3565 97.9886 16.2401 97.4318L17.1946 97.1932C17.2855 97.5455 17.4574 97.8097 17.7102 97.9858C17.9659 98.1619 18.2997 98.25 18.7116 98.25C19.1804 98.25 19.5526 98.1506 19.8281 97.9517C20.1065 97.75 20.2457 97.5085 20.2457 97.2273C20.2457 97 20.1662 96.8097 20.0071 96.6562C19.848 96.5 19.6037 96.3835 19.2741 96.3068L18.1832 96.0511C17.5838 95.9091 17.1435 95.6889 16.8622 95.3906C16.5838 95.0895 16.4446 94.7131 16.4446 94.2614C16.4446 93.892 16.5483 93.5653 16.7557 93.2812C16.9659 92.9972 17.2514 92.7741 17.6122 92.6122C17.9759 92.4503 18.3878 92.3693 18.848 92.3693C19.4957 92.3693 20.0043 92.5114 20.3736 92.7955C20.7457 93.0795 21.0099 93.4545 21.1662 93.9205ZM22.7994 99V92.4545H23.805V99H22.7994ZM23.3107 91.3636C23.1147 91.3636 22.9457 91.2969 22.8036 91.1634C22.6644 91.0298 22.5948 90.8693 22.5948 90.6818C22.5948 90.4943 22.6644 90.3338 22.8036 90.2003C22.9457 90.0668 23.1147 90 23.3107 90C23.5067 90 23.6744 90.0668 23.8136 90.2003C23.9556 90.3338 24.0266 90.4943 24.0266 90.6818C24.0266 90.8693 23.9556 91.0298 23.8136 91.1634C23.6744 91.2969 23.5067 91.3636 23.3107 91.3636ZM28.2891 101.591C27.8033 101.591 27.3857 101.528 27.0362 101.403C26.6868 101.281 26.3956 101.119 26.1626 100.918C25.9325 100.719 25.7493 100.506 25.6129 100.278L26.4141 99.7159C26.505 99.8352 26.62 99.9716 26.7592 100.125C26.8984 100.281 27.0888 100.416 27.3303 100.53C27.5746 100.646 27.8942 100.705 28.2891 100.705C28.8175 100.705 29.2536 100.577 29.5973 100.321C29.9411 100.065 30.1129 99.6648 30.1129 99.1193V97.7898H30.0277C29.9538 97.9091 29.8487 98.0568 29.7124 98.233C29.5788 98.4062 29.3857 98.5611 29.1328 98.6974C28.8828 98.831 28.5447 98.8977 28.1186 98.8977C27.5902 98.8977 27.1158 98.7727 26.6953 98.5227C26.2777 98.2727 25.9467 97.9091 25.7024 97.4318C25.4609 96.9545 25.3402 96.375 25.3402 95.6932C25.3402 95.0227 25.4581 94.4389 25.6939 93.9418C25.9297 93.4418 26.2578 93.0554 26.6783 92.7827C27.0987 92.5071 27.5845 92.3693 28.1357 92.3693C28.5618 92.3693 28.8999 92.4403 29.1499 92.5824C29.4027 92.7216 29.5959 92.8807 29.7294 93.0597C29.8658 93.2358 29.9709 93.3807 30.0447 93.4943H30.147V92.4545H31.1186V99.1875C31.1186 99.75 30.9908 100.207 30.7351 100.56C30.4822 100.915 30.1413 101.175 29.7124 101.339C29.2862 101.507 28.8118 101.591 28.2891 101.591ZM28.255 97.9943C28.6584 97.9943 28.9993 97.902 29.2777 97.7173C29.5561 97.5327 29.7678 97.267 29.9126 96.9205C30.0575 96.5739 30.13 96.1591 30.13 95.6761C30.13 95.2045 30.0589 94.7884 29.9169 94.4276C29.7749 94.0668 29.5646 93.7841 29.2862 93.5795C29.0078 93.375 28.6641 93.2727 28.255 93.2727C27.8288 93.2727 27.4737 93.3807 27.1896 93.5966C26.9084 93.8125 26.6967 94.1023 26.5547 94.4659C26.4155 94.8295 26.3459 95.233 26.3459 95.6761C26.3459 96.1307 26.4169 96.5327 26.5589 96.8821C26.7038 97.2287 26.9169 97.5014 27.1982 97.7003C27.4822 97.8963 27.8345 97.9943 28.255 97.9943ZM33.9652 95.0625V99H32.9595V92.4545H33.9311V93.4773H34.0163C34.1697 93.1449 34.4027 92.8778 34.7152 92.6761C35.0277 92.4716 35.4311 92.3693 35.9254 92.3693C36.3686 92.3693 36.7564 92.4602 37.0888 92.642C37.4212 92.821 37.6797 93.0938 37.8643 93.4602C38.049 93.8239 38.1413 94.2841 38.1413 94.8409V99H37.1357V94.9091C37.1357 94.3949 37.0021 93.9943 36.7351 93.7074C36.468 93.4176 36.1016 93.2727 35.6357 93.2727C35.3146 93.2727 35.0277 93.3423 34.7749 93.4815C34.5249 93.6207 34.3274 93.8239 34.1825 94.0909C34.0376 94.358 33.9652 94.6818 33.9652 95.0625ZM40.712 99.0682C40.5018 99.0682 40.3214 98.9929 40.1708 98.8423C40.0202 98.6918 39.945 98.5114 39.945 98.3011C39.945 98.0909 40.0202 97.9105 40.1708 97.7599C40.3214 97.6094 40.5018 97.5341 40.712 97.5341C40.9222 97.5341 41.1026 97.6094 41.2532 97.7599C41.4038 97.9105 41.479 98.0909 41.479 98.3011C41.479 98.4403 41.4435 98.5682 41.3725 98.6847C41.3043 98.8011 41.212 98.8949 41.0955 98.9659C40.9819 99.0341 40.854 99.0682 40.712 99.0682ZM40.712 94.2102C40.5018 94.2102 40.3214 94.1349 40.1708 93.9844C40.0202 93.8338 39.945 93.6534 39.945 93.4432C39.945 93.233 40.0202 93.0526 40.1708 92.902C40.3214 92.7514 40.5018 92.6761 40.712 92.6761C40.9222 92.6761 41.1026 92.7514 41.2532 92.902C41.4038 93.0526 41.479 93.233 41.479 93.4432C41.479 93.5824 41.4435 93.7102 41.3725 93.8267C41.3043 93.9432 41.212 94.0369 41.0955 94.108C40.9819 94.1761 40.854 94.2102 40.712 94.2102ZM46.7951 99V90.2727H49.744C50.4258 90.2727 50.9854 90.3892 51.4229 90.6222C51.8604 90.8523 52.1843 91.169 52.3945 91.5724C52.6048 91.9759 52.7099 92.4347 52.7099 92.9489C52.7099 93.4631 52.6048 93.919 52.3945 94.3168C52.1843 94.7145 51.8619 95.027 51.4272 95.2543C50.9925 95.4787 50.4371 95.5909 49.761 95.5909H47.3746V94.6364H49.7269C50.1928 94.6364 50.5678 94.5682 50.8519 94.4318C51.1388 94.2955 51.3462 94.1023 51.4741 93.8523C51.6048 93.5994 51.6701 93.2983 51.6701 92.9489C51.6701 92.5994 51.6048 92.294 51.4741 92.0327C51.3434 91.7713 51.1346 91.5696 50.8477 91.4276C50.5607 91.2827 50.1815 91.2102 49.7099 91.2102H47.8519V99H46.7951ZM50.9031 95.0795L53.0508 99H51.8235L49.7099 95.0795H50.9031ZM56.2607 99.1534C55.8459 99.1534 55.4695 99.0753 55.1314 98.919C54.7933 98.7599 54.5249 98.5312 54.326 98.233C54.1271 97.9318 54.0277 97.5682 54.0277 97.142C54.0277 96.767 54.1016 96.4631 54.2493 96.2301C54.397 95.9943 54.5945 95.8097 54.8416 95.6761C55.0888 95.5426 55.3615 95.4432 55.6598 95.3778C55.9609 95.3097 56.2635 95.2557 56.5675 95.2159C56.9652 95.1648 57.2876 95.1264 57.5348 95.1009C57.7848 95.0724 57.9666 95.0256 58.0803 94.9602C58.1967 94.8949 58.255 94.7812 58.255 94.6193V94.5852C58.255 94.1648 58.1399 93.8381 57.9098 93.6051C57.6825 93.3722 57.3374 93.2557 56.8743 93.2557C56.3942 93.2557 56.0178 93.3608 55.745 93.571C55.4723 93.7812 55.2805 94.0057 55.1697 94.2443L54.2152 93.9034C54.3857 93.5057 54.6129 93.196 54.897 92.9744C55.1839 92.75 55.4964 92.5937 55.8345 92.5057C56.1754 92.4148 56.5107 92.3693 56.8402 92.3693C57.0504 92.3693 57.2919 92.3949 57.5646 92.446C57.8402 92.4943 58.1058 92.5952 58.3615 92.7486C58.62 92.902 58.8345 93.1335 59.005 93.4432C59.1754 93.7528 59.2607 94.1676 59.2607 94.6875V99H58.255V98.1136H58.2038C58.1357 98.2557 58.022 98.4077 57.8629 98.5696C57.7038 98.7315 57.4922 98.8693 57.228 98.983C56.9638 99.0966 56.6413 99.1534 56.2607 99.1534ZM56.4141 98.25C56.8118 98.25 57.147 98.1719 57.4197 98.0156C57.6953 97.8594 57.9027 97.6577 58.0419 97.4105C58.1839 97.1634 58.255 96.9034 58.255 96.6307V95.7102C58.2124 95.7614 58.1186 95.8082 57.9737 95.8509C57.8317 95.8906 57.6669 95.9261 57.4794 95.9574C57.2947 95.9858 57.1143 96.0114 56.9382 96.0341C56.7649 96.054 56.6243 96.071 56.5163 96.0852C56.255 96.1193 56.0107 96.1747 55.7834 96.2514C55.5589 96.3253 55.3771 96.4375 55.2379 96.5881C55.1016 96.7358 55.0334 96.9375 55.0334 97.1932C55.0334 97.5426 55.1626 97.8068 55.4212 97.9858C55.6825 98.1619 56.0135 98.25 56.4141 98.25ZM65.7326 93.9205L64.8292 94.1761C64.7724 94.0256 64.6886 93.8793 64.5778 93.7372C64.4698 93.5923 64.3221 93.473 64.1346 93.3793C63.9471 93.2855 63.707 93.2386 63.4144 93.2386C63.0138 93.2386 62.68 93.331 62.413 93.5156C62.1488 93.6974 62.0167 93.929 62.0167 94.2102C62.0167 94.4602 62.1076 94.6577 62.2894 94.8026C62.4712 94.9474 62.7553 95.0682 63.1417 95.1648L64.1133 95.4034C64.6985 95.5455 65.1346 95.7628 65.4215 96.0554C65.7085 96.3452 65.8519 96.7187 65.8519 97.1761C65.8519 97.5511 65.744 97.8864 65.5281 98.1818C65.315 98.4773 65.0167 98.7102 64.6332 98.8807C64.2496 99.0511 63.8036 99.1364 63.2951 99.1364C62.6275 99.1364 62.0749 98.9915 61.6374 98.7017C61.1999 98.4119 60.9229 97.9886 60.8065 97.4318L61.761 97.1932C61.8519 97.5455 62.0238 97.8097 62.2766 97.9858C62.5323 98.1619 62.8661 98.25 63.2781 98.25C63.7468 98.25 64.119 98.1506 64.3945 97.9517C64.6729 97.75 64.8121 97.5085 64.8121 97.2273C64.8121 97 64.7326 96.8097 64.5735 96.6562C64.4144 96.5 64.1701 96.3835 63.8406 96.3068L62.7496 96.0511C62.1502 95.9091 61.7099 95.6889 61.4286 95.3906C61.1502 95.0895 61.011 94.7131 61.011 94.2614C61.011 93.892 61.1147 93.5653 61.3221 93.2812C61.5323 92.9972 61.8178 92.7741 62.1786 92.6122C62.5423 92.4503 62.9542 92.3693 63.4144 92.3693C64.0621 92.3693 64.5707 92.5114 64.94 92.7955C65.3121 93.0795 65.5763 93.4545 65.7326 93.9205ZM71.4908 96.3239V92.4545H72.4964V99H71.4908V97.892H71.4226C71.2692 98.2244 71.0305 98.5071 70.7067 98.7401C70.3828 98.9702 69.9737 99.0852 69.4794 99.0852C69.0703 99.0852 68.7067 98.9957 68.3885 98.8168C68.0703 98.6349 67.8203 98.3622 67.6385 97.9986C67.4567 97.6321 67.3658 97.1705 67.3658 96.6136V92.4545H68.3714V96.5455C68.3714 97.0227 68.505 97.4034 68.772 97.6875C69.0419 97.9716 69.3857 98.1136 69.8033 98.1136C70.0533 98.1136 70.3075 98.0497 70.5661 97.9219C70.8274 97.794 71.0462 97.598 71.2223 97.3338C71.4013 97.0696 71.4908 96.733 71.4908 96.3239ZM75.3441 90.2727V99H74.3384V90.2727H75.3441ZM79.8452 99.1364C79.2543 99.1364 78.7358 98.9957 78.2898 98.7145C77.8466 98.4332 77.5 98.0398 77.25 97.5341C77.0028 97.0284 76.8793 96.4375 76.8793 95.7614C76.8793 95.0795 77.0028 94.4844 77.25 93.9759C77.5 93.4673 77.8466 93.0724 78.2898 92.7912C78.7358 92.5099 79.2543 92.3693 79.8452 92.3693C80.4361 92.3693 80.9531 92.5099 81.3963 92.7912C81.8423 93.0724 82.1889 93.4673 82.4361 93.9759C82.6861 94.4844 82.8111 95.0795 82.8111 95.7614C82.8111 96.4375 82.6861 97.0284 82.4361 97.5341C82.1889 98.0398 81.8423 98.4332 81.3963 98.7145C80.9531 98.9957 80.4361 99.1364 79.8452 99.1364ZM79.8452 98.233C80.294 98.233 80.6634 98.1179 80.9531 97.8878C81.2429 97.6577 81.4574 97.3551 81.5966 96.9801C81.7358 96.6051 81.8054 96.1989 81.8054 95.7614C81.8054 95.3239 81.7358 94.9162 81.5966 94.5384C81.4574 94.1605 81.2429 93.8551 80.9531 93.6222C80.6634 93.3892 80.294 93.2727 79.8452 93.2727C79.3963 93.2727 79.027 93.3892 78.7372 93.6222C78.4474 93.8551 78.233 94.1605 78.0938 94.5384C77.9545 94.9162 77.8849 95.3239 77.8849 95.7614C77.8849 96.1989 77.9545 96.6051 78.0938 96.9801C78.233 97.3551 78.4474 97.6577 78.7372 97.8878C79.027 98.1179 79.3963 98.233 79.8452 98.233ZM89.4641 92.4545L87.0437 99H86.021L83.6005 92.4545H84.6914L86.4982 97.6705H86.5664L88.3732 92.4545H89.4641ZM93.5529 90.2727H94.7631L97.1836 94.3466H97.2859L99.7063 90.2727H100.917L97.7631 95.4034V99H96.7063V95.4034L93.5529 90.2727ZM103.88 99.1364C103.289 99.1364 102.771 98.9957 102.325 98.7145C101.882 98.4332 101.535 98.0398 101.285 97.5341C101.038 97.0284 100.914 96.4375 100.914 95.7614C100.914 95.0795 101.038 94.4844 101.285 93.9759C101.535 93.4673 101.882 93.0724 102.325 92.7912C102.771 92.5099 103.289 92.3693 103.88 92.3693C104.471 92.3693 104.988 92.5099 105.431 92.7912C105.877 93.0724 106.224 93.4673 106.471 93.9759C106.721 94.4844 106.846 95.0795 106.846 95.7614C106.846 96.4375 106.721 97.0284 106.471 97.5341C106.224 98.0398 105.877 98.4332 105.431 98.7145C104.988 98.9957 104.471 99.1364 103.88 99.1364ZM103.88 98.233C104.329 98.233 104.699 98.1179 104.988 97.8878C105.278 97.6577 105.493 97.3551 105.632 96.9801C105.771 96.6051 105.841 96.1989 105.841 95.7614C105.841 95.3239 105.771 94.9162 105.632 94.5384C105.493 94.1605 105.278 93.8551 104.988 93.6222C104.699 93.3892 104.329 93.2727 103.88 93.2727C103.431 93.2727 103.062 93.3892 102.772 93.6222C102.483 93.8551 102.268 94.1605 102.129 94.5384C101.99 94.9162 101.92 95.3239 101.92 95.7614C101.92 96.1989 101.99 96.6051 102.129 96.9801C102.268 97.3551 102.483 97.6577 102.772 97.8878C103.062 98.1179 103.431 98.233 103.88 98.233ZM110.853 99.1364C110.308 99.1364 109.826 98.9986 109.408 98.723C108.991 98.4446 108.664 98.0526 108.428 97.5469C108.192 97.0384 108.075 96.4375 108.075 95.7443C108.075 95.0568 108.192 94.4602 108.428 93.9545C108.664 93.4489 108.992 93.0582 109.413 92.7827C109.833 92.5071 110.319 92.3693 110.87 92.3693C111.296 92.3693 111.633 92.4403 111.88 92.5824C112.13 92.7216 112.32 92.8807 112.451 93.0597C112.585 93.2358 112.688 93.3807 112.762 93.4943H112.847V90.2727H113.853V99H112.881V97.9943H112.762C112.688 98.1136 112.583 98.2642 112.447 98.446C112.31 98.625 112.116 98.7855 111.863 98.9276C111.61 99.0668 111.273 99.1364 110.853 99.1364ZM110.989 98.233C111.393 98.233 111.734 98.1278 112.012 97.9176C112.29 97.7045 112.502 97.4105 112.647 97.0355C112.792 96.6577 112.864 96.2216 112.864 95.7273C112.864 95.2386 112.793 94.8111 112.651 94.4446C112.509 94.0753 112.299 93.7884 112.021 93.5838C111.742 93.3764 111.398 93.2727 110.989 93.2727C110.563 93.2727 110.208 93.3821 109.924 93.6009C109.643 93.8168 109.431 94.1108 109.289 94.483C109.15 94.8523 109.08 95.267 109.08 95.7273C109.08 96.1932 109.151 96.6165 109.293 96.9972C109.438 97.375 109.651 97.6761 109.933 97.9006C110.217 98.1222 110.569 98.233 110.989 98.233ZM118.477 101.591C117.991 101.591 117.573 101.528 117.224 101.403C116.874 101.281 116.583 101.119 116.35 100.918C116.12 100.719 115.937 100.506 115.8 100.278L116.602 99.7159C116.692 99.8352 116.808 99.9716 116.947 100.125C117.086 100.281 117.276 100.416 117.518 100.53C117.762 100.646 118.082 100.705 118.477 100.705C119.005 100.705 119.441 100.577 119.785 100.321C120.129 100.065 120.3 99.6648 120.3 99.1193V97.7898H120.215C120.141 97.9091 120.036 98.0568 119.9 98.233C119.766 98.4062 119.573 98.5611 119.32 98.6974C119.07 98.831 118.732 98.8977 118.306 98.8977C117.778 98.8977 117.303 98.7727 116.883 98.5227C116.465 98.2727 116.134 97.9091 115.89 97.4318C115.648 96.9545 115.528 96.375 115.528 95.6932C115.528 95.0227 115.646 94.4389 115.881 93.9418C116.117 93.4418 116.445 93.0554 116.866 92.7827C117.286 92.5071 117.772 92.3693 118.323 92.3693C118.749 92.3693 119.087 92.4403 119.337 92.5824C119.59 92.7216 119.783 92.8807 119.917 93.0597C120.053 93.2358 120.158 93.3807 120.232 93.4943H120.335V92.4545H121.306V99.1875C121.306 99.75 121.178 100.207 120.923 100.56C120.67 100.915 120.329 101.175 119.9 101.339C119.474 101.507 118.999 101.591 118.477 101.591ZM118.442 97.9943C118.846 97.9943 119.187 97.902 119.465 97.7173C119.744 97.5327 119.955 97.267 120.1 96.9205C120.245 96.5739 120.317 96.1591 120.317 95.6761C120.317 95.2045 120.246 94.7884 120.104 94.4276C119.962 94.0668 119.752 93.7841 119.474 93.5795C119.195 93.375 118.852 93.2727 118.442 93.2727C118.016 93.2727 117.661 93.3807 117.377 93.5966C117.096 93.8125 116.884 94.1023 116.742 94.4659C116.603 94.8295 116.533 95.233 116.533 95.6761C116.533 96.1307 116.604 96.5327 116.746 96.8821C116.891 97.2287 117.104 97.5014 117.386 97.7003C117.67 97.8963 118.022 97.9943 118.442 97.9943ZM125.806 99.1364C125.215 99.1364 124.697 98.9957 124.251 98.7145C123.808 98.4332 123.461 98.0398 123.211 97.5341C122.964 97.0284 122.84 96.4375 122.84 95.7614C122.84 95.0795 122.964 94.4844 123.211 93.9759C123.461 93.4673 123.808 93.0724 124.251 92.7912C124.697 92.5099 125.215 92.3693 125.806 92.3693C126.397 92.3693 126.914 92.5099 127.357 92.7912C127.803 93.0724 128.15 93.4673 128.397 93.9759C128.647 94.4844 128.772 95.0795 128.772 95.7614C128.772 96.4375 128.647 97.0284 128.397 97.5341C128.15 98.0398 127.803 98.4332 127.357 98.7145C126.914 98.9957 126.397 99.1364 125.806 99.1364ZM125.806 98.233C126.255 98.233 126.624 98.1179 126.914 97.8878C127.204 97.6577 127.418 97.3551 127.558 96.9801C127.697 96.6051 127.766 96.1989 127.766 95.7614C127.766 95.3239 127.697 94.9162 127.558 94.5384C127.418 94.1605 127.204 93.8551 126.914 93.6222C126.624 93.3892 126.255 93.2727 125.806 93.2727C125.357 93.2727 124.988 93.3892 124.698 93.6222C124.408 93.8551 124.194 94.1605 124.055 94.5384C123.915 94.9162 123.846 95.3239 123.846 95.7614C123.846 96.1989 123.915 96.6051 124.055 96.9801C124.194 97.3551 124.408 97.6577 124.698 97.8878C124.988 98.1179 125.357 98.233 125.806 98.233ZM130.307 99V92.4545H131.279V93.4432H131.347C131.466 93.1193 131.682 92.8565 131.995 92.6548C132.307 92.4531 132.659 92.3523 133.051 92.3523C133.125 92.3523 133.218 92.3537 133.328 92.3565C133.439 92.3594 133.523 92.3636 133.58 92.3693V93.392C133.546 93.3835 133.468 93.3707 133.346 93.3537C133.226 93.3338 133.1 93.3239 132.966 93.3239C132.648 93.3239 132.364 93.3906 132.114 93.5241C131.867 93.6548 131.671 93.8366 131.526 94.0696C131.384 94.2997 131.313 94.5625 131.313 94.858V99H130.307Z" fill="white"/>
</svg>
