<svg width="96" height="52" viewBox="0 0 96 52" fill="none" xmlns="http://www.w3.org/2000/svg">
<path d="M15.3939 13.0789H16.0002L22.2573 0H31.394L20.4819 20.4237V30.7966H10.9122V20.4237L0 0H9.13675L15.3939 13.0789ZM62.8314 26.7591L58.2197 31.2261L54.6689 27.5322C54.4669 27.8615 54.0339 28.2982 53.3699 28.8423C52.8791 29.2575 52.3162 29.6297 51.6811 29.959C51.0171 30.317 50.1655 30.6176 49.1262 30.8611C48.1015 31.1044 47.0406 31.2261 45.9436 31.2261C41.8443 31.2261 38.7626 30.3528 36.6985 28.6061C34.6345 26.8594 33.6024 24.5399 33.6024 21.6478C33.6024 20.1875 33.8406 18.8631 34.3169 17.6748C34.7933 16.4864 35.3634 15.5845 36.0273 14.9688C37.4707 13.6373 38.7049 12.8427 39.7297 12.5849L40.4442 12.4131V12.1554L35.248 6.61462V0H57.9166V6.52867H44.7311V6.82938L51.1614 14.0453V10.1581H57.5485V20.8962L62.8314 26.7591ZM46.1601 24.2035C47.0116 24.2035 47.7767 24.0674 48.4551 23.7954C49.1335 23.5091 49.5665 23.2012 49.7542 22.8719L50.0572 22.4854L45.4456 17.5674C45.2147 17.5674 44.8177 17.6605 44.2548 17.8466C43.8506 17.9754 43.5114 18.1472 43.2371 18.362C42.9052 18.6054 42.6237 18.9633 42.3928 19.4358C42.1619 19.9083 42.0464 20.4237 42.0464 20.9821C42.0464 22.0273 42.4072 22.829 43.1289 23.3874C43.865 23.9315 44.8755 24.2035 46.1601 24.2035ZM79.113 20.6814H73.9384V30.7966H65.5161V0H79.4811C84.1288 0 87.4703 0.816083 89.5055 2.4483C91.5407 4.08045 92.5583 6.65039 92.5583 10.1581C92.5583 11.4324 92.3851 12.6208 92.0387 13.7232C91.7067 14.8113 91.2665 15.6775 90.718 16.3217C89.6498 17.5817 88.6972 18.4193 87.86 18.8345L87.3187 19.0493V19.1781L94.9399 30.7966H85.5866L79.113 20.6814ZM73.9384 13.7232H79.4811C82.2813 13.7232 83.6814 12.5921 83.6814 10.3299C83.6814 8.08212 82.2813 6.95826 79.4811 6.95826H73.9384V13.7232ZM8.73374 51.8319H5.43807V39.7811H15.5708V42.403H8.73374V45.1678H14.3507V47.6468H8.73374V51.8319ZM20.1759 49.0755H26.9791V51.8319H16.8802V39.7811H20.1759V49.0755ZM38.3449 41.2601C39.4915 42.3638 40.0648 43.8792 40.0648 45.8064C40.0648 47.7281 39.4915 49.2407 38.3449 50.3444C37.187 51.4481 35.6226 52 33.6514 52C31.6689 52 30.1044 51.4481 28.9578 50.3444C27.8056 49.2407 27.2295 47.7281 27.2295 45.8064C27.2295 43.8737 27.8056 42.3582 28.9578 41.2601C30.0987 40.162 31.6633 39.613 33.6514 39.613C35.6338 39.613 37.1984 40.162 38.3449 41.2601ZM33.6429 49.1847C34.62 49.1847 35.3571 48.871 35.8541 48.2436C36.3511 47.6161 36.5997 46.8037 36.5997 45.8064C36.5997 44.8093 36.3511 43.9969 35.8541 43.3694C35.3514 42.7475 34.6144 42.4366 33.6429 42.4366C32.6714 42.4366 31.9371 42.7475 31.4401 43.3694C30.9431 43.9969 30.6946 44.8093 30.6946 45.8064C30.6946 46.8037 30.9431 47.6161 31.4401 48.2436C31.9371 48.871 32.6714 49.1847 33.6429 49.1847ZM52.1423 39.7811L53.8792 48.42H54.074L55.7515 39.7811H59.1573L56.4293 51.8319H51.6425L49.9396 43.277H49.7871L48.0842 51.8319H43.2974L40.5694 39.7811H43.9752L45.6527 48.42H45.8476L47.5843 39.7811H52.1423ZM70.7434 51.8319H60.3735V39.7811H70.7434V42.403H63.6693V44.4283H69.5659V46.9074H63.6693V49.2184H70.7434V51.8319ZM77.7971 47.8738H75.7722V51.8319H72.4765V39.7811H77.9411C79.7598 39.7811 81.0673 40.1004 81.8637 40.739C82.6601 41.3778 83.0583 42.3834 83.0583 43.756C83.0583 44.2546 82.9905 44.7196 82.8549 45.151C82.7251 45.5768 82.5528 45.9157 82.3381 46.1679C81.9202 46.6609 81.5474 46.9886 81.2198 47.1511L81.008 47.2351V47.2855L83.9902 51.8319H80.3302L77.7971 47.8738ZM75.7722 45.151H77.9411C79.0368 45.151 79.5846 44.7084 79.5846 43.8232C79.5846 42.9436 79.0368 42.5038 77.9411 42.5038H75.7722V45.151ZM95.4408 43.2938V43.6047H91.9757V43.2938C91.9757 42.9409 91.8176 42.6635 91.5013 42.4618C91.185 42.2602 90.7246 42.1593 90.1203 42.1593C89.5329 42.1593 89.0754 42.2573 88.7479 42.4534C88.4259 42.6439 88.2649 42.9017 88.2649 43.2266C88.2649 43.5179 88.4569 43.7532 88.841 43.9325C89.2082 44.1006 89.6826 44.2154 90.2643 44.277C90.8405 44.3387 91.4618 44.4395 92.1282 44.5795C92.806 44.7308 93.4301 44.9157 94.0006 45.1342C94.5766 45.3583 95.0539 45.7308 95.4323 46.2519C95.8108 46.7785 96 47.434 96 48.2183C96 49.4117 95.5058 50.3389 94.5174 51C93.5233 51.6666 92.1028 52 90.2559 52C88.375 52 86.9461 51.6722 85.9689 51.0168C84.9975 50.3557 84.5117 49.3949 84.5117 48.1343V47.6468H87.9853V48.1511C87.9853 49.0251 88.7422 49.4593 90.2559 49.4537C90.928 49.4537 91.4758 49.3528 91.8995 49.1512C92.3175 48.955 92.5264 48.6497 92.5264 48.2352C92.5264 47.9326 92.3372 47.6946 91.9588 47.5208C91.569 47.3415 91.0918 47.2183 90.527 47.1511C89.9566 47.0839 89.3352 46.9746 88.6631 46.8233C87.9797 46.6665 87.3583 46.4816 86.7993 46.2686C86.2288 46.0614 85.7516 45.6945 85.3674 45.1678C84.9834 44.6524 84.7914 44.0165 84.7914 43.2602C84.7914 42.1341 85.2517 41.2433 86.1723 40.5878C87.0986 39.9379 88.4146 39.613 90.1203 39.613C91.8487 39.613 93.1674 39.9296 94.0768 40.5626C94.9861 41.1901 95.4408 42.1005 95.4408 43.2938Z" fill="white"/>
</svg>
