<svg width="73" height="40" viewBox="0 0 73 40" fill="none" xmlns="http://www.w3.org/2000/svg">
<g opacity="0.9">
<path d="M12.37 10.4402H12.8219L17.4855 0.624634H24.2954L16.1623 15.9524V23.7371H9.02966V15.9524L0.896484 0.624634H7.70638L12.37 10.4402ZM47.7266 20.707L44.2894 24.0595L41.6429 21.2873C41.4923 21.5344 41.1696 21.8621 40.6747 22.2705C40.3089 22.5821 39.8894 22.8614 39.416 23.1085C38.9211 23.3772 38.2863 23.6028 37.5118 23.7855C36.748 23.9681 35.9572 24.0595 35.1396 24.0595C32.0843 24.0595 29.7874 23.404 28.249 22.0932C26.7106 20.7823 25.9414 19.0416 25.9414 16.8711C25.9414 15.7751 26.1189 14.7812 26.4739 13.8894C26.829 12.9975 27.2539 12.3206 27.7487 11.8585C28.8246 10.8592 29.7444 10.2629 30.5083 10.0695L31.0408 9.94052V9.74714L27.1679 5.58883V0.624634H44.0635V5.52432H34.2359V5.75L39.0286 11.1655V8.24819H43.7891V16.307L47.7266 20.707ZM35.301 18.7891C35.9357 18.7891 36.5059 18.687 37.0115 18.4828C37.5172 18.268 37.8399 18.0369 37.9798 17.7898L38.2057 17.4997L34.7685 13.8088C34.5963 13.8088 34.3005 13.8786 33.8809 14.0183C33.5797 14.115 33.3268 14.2439 33.1224 14.4051C32.875 14.5878 32.6652 14.8564 32.4931 15.211C32.321 15.5656 32.2349 15.9524 32.2349 16.3715C32.2349 17.1559 32.5038 17.7576 33.0418 18.1766C33.5904 18.5849 34.3435 18.7891 35.301 18.7891ZM59.8618 16.1458H56.005V23.7371H49.7276V0.624634H60.1362C63.6003 0.624634 66.0907 1.23709 67.6077 2.46205C69.1246 3.68696 69.883 5.61567 69.883 8.24819C69.883 9.2045 69.7539 10.0964 69.4957 10.9238C69.2483 11.7404 68.9202 12.3904 68.5114 12.8739C67.7152 13.8195 67.0052 14.4481 66.3812 14.7597L65.9778 14.9209V15.0175L71.6581 23.7371H64.6868L59.8618 16.1458ZM56.005 10.9238H60.1362C62.2232 10.9238 63.2668 10.0749 63.2668 8.37713C63.2668 6.69018 62.2232 5.84673 60.1362 5.84673H56.005V10.9238ZM7.406 39.5239H4.94964V30.4799H12.5019V32.4476H7.406V34.5226H11.5925V36.3831H7.406V39.5239ZM15.9342 37.4553H21.0048V39.5239H13.4778V30.4799H15.9342V37.4553ZM29.4761 31.5899C30.3307 32.4182 30.758 33.5555 30.758 35.0019C30.758 36.444 30.3307 37.5793 29.4761 38.4076C28.6131 39.2359 27.4471 39.65 25.9779 39.65C24.5002 39.65 23.3342 39.2359 22.4796 38.4076C21.6208 37.5793 21.1915 36.444 21.1915 35.0019C21.1915 33.5513 21.6208 32.414 22.4796 31.5899C23.33 30.7658 24.4961 30.3537 25.9779 30.3537C27.4555 30.3537 28.6216 30.7658 29.4761 31.5899ZM25.9716 37.5372C26.6998 37.5372 27.2492 37.3018 27.6196 36.8309C27.9901 36.3599 28.1754 35.7503 28.1754 35.0019C28.1754 34.2535 27.9901 33.6438 27.6196 33.1729C27.245 32.7062 26.6956 32.4728 25.9716 32.4728C25.2475 32.4728 24.7002 32.7062 24.3298 33.1729C23.9593 33.6438 23.7741 34.2535 23.7741 35.0019C23.7741 35.7503 23.9593 36.3599 24.3298 36.8309C24.7002 37.3018 25.2475 37.5372 25.9716 37.5372ZM39.7597 30.4799L41.0543 36.9633H41.1995L42.4498 30.4799H44.9882L42.9549 39.5239H39.3872L38.118 33.1035H38.0043L36.7351 39.5239H33.1673L31.1341 30.4799H33.6726L34.9228 36.9633H35.0681L36.3625 30.4799H39.7597ZM53.6237 39.5239H45.8947V30.4799H53.6237V32.4476H48.3511V33.9675H52.7461V35.8281H48.3511V37.5625H53.6237V39.5239ZM58.881 36.5534H57.3718V39.5239H54.9154V30.4799H58.9884C60.3439 30.4799 61.3184 30.7196 61.912 31.1988C62.5056 31.6782 62.8024 32.4329 62.8024 33.463C62.8024 33.8372 62.7518 34.1862 62.6508 34.51C62.554 34.8295 62.4256 35.0839 62.2656 35.2731C61.9541 35.6431 61.6762 35.8891 61.432 36.011L61.2742 36.0741V36.1119L63.497 39.5239H60.7691L58.881 36.5534ZM57.3718 34.51H58.9884C59.805 34.51 60.2133 34.1778 60.2133 33.5134C60.2133 32.8533 59.805 32.5233 58.9884 32.5233H57.3718V34.51ZM72.0314 33.1161V33.3495H69.4488V33.1161C69.4488 32.8513 69.3309 32.6431 69.0952 32.4918C68.8594 32.3404 68.5163 32.2647 68.0659 32.2647C67.6281 32.2647 67.2871 32.3383 67.043 32.4854C66.803 32.6284 66.683 32.8218 66.683 33.0657C66.683 33.2843 66.8261 33.4609 67.1124 33.5955C67.386 33.7216 67.7397 33.8078 68.1732 33.854C68.6027 33.9003 69.0657 33.976 69.5625 34.0811C70.0676 34.1946 70.5328 34.3334 70.958 34.4973C71.3873 34.6655 71.743 34.9451 72.0251 35.3362C72.3072 35.7313 72.4482 36.2233 72.4482 36.8119C72.4482 37.7076 72.0798 38.4034 71.3431 38.8995C70.6023 39.3998 69.5435 39.65 68.1669 39.65C66.7651 39.65 65.7 39.4041 64.9717 38.9122C64.2477 38.416 63.8856 37.6949 63.8856 36.7489V36.3831H66.4746V36.7615C66.4746 37.4174 67.0387 37.7433 68.1669 37.7391C68.6679 37.7391 69.0762 37.6634 69.392 37.512C69.7035 37.3648 69.8592 37.1357 69.8592 36.8246C69.8592 36.5975 69.7182 36.4189 69.4361 36.2885C69.1457 36.1539 68.79 36.0614 68.369 36.011C67.9438 35.9605 67.4807 35.8785 66.9798 35.765C66.4704 35.6473 66.0073 35.5085 65.5906 35.3487C65.1654 35.1932 64.8097 34.9178 64.5234 34.5226C64.2372 34.1357 64.0941 33.6585 64.0941 33.0909C64.0941 32.2458 64.4371 31.5773 65.1233 31.0853C65.8137 30.5976 66.7946 30.3537 68.0659 30.3537C69.3541 30.3537 70.337 30.5913 71.0148 31.0664C71.6925 31.5373 72.0314 32.2206 72.0314 33.1161Z" fill="#BF113B"/>
</g>
</svg>
