<svg width="181" height="181" viewBox="0 0 181 181" fill="none" xmlns="http://www.w3.org/2000/svg">
<circle cx="90.0543" cy="90.0543" r="90.0543" fill="#BF113B"/>
<path d="M136.598 69.0568L80.3136 125.341C79.6224 126.042 78.7988 126.599 77.8905 126.979C76.9822 127.359 76.0075 127.555 75.0229 127.555C74.0383 127.555 73.0636 127.359 72.1553 126.979C71.247 126.599 70.4234 126.042 69.7322 125.341L43.4664 99.0749C42.0632 97.6717 41.2749 95.7686 41.2749 93.7842C41.2749 91.7998 42.0632 89.8967 43.4664 88.4935C44.8696 87.0903 46.7727 86.302 48.7571 86.302C50.7415 86.302 52.6446 87.0903 54.0478 88.4935L75.0229 109.431L126.016 58.4754C127.419 57.0722 129.322 56.2839 131.307 56.2839C133.291 56.2839 135.194 57.0722 136.598 58.4754C138.001 59.8786 138.789 61.7817 138.789 63.7661C138.789 65.7505 138.001 67.6536 136.598 69.0568Z" fill="white"/>
</svg>
