<svg width="181" height="181" viewBox="0 0 181 181" fill="none" xmlns="http://www.w3.org/2000/svg">
<circle cx="90.5001" cy="90.0543" r="90.0543" fill="#BF113B"/>
<path fill-rule="evenodd" clip-rule="evenodd" d="M117.428 103.85H63.5698C62.8754 103.85 62.3115 103.33 62.3115 102.69C62.3118 102.05 62.875 101.53 63.5695 101.53H117.428C118.122 101.53 118.685 102.05 118.685 102.69C118.686 103.33 118.122 103.85 117.428 103.85Z" fill="white"/>
<path fill-rule="evenodd" clip-rule="evenodd" d="M117.428 114.552H63.5698C62.8754 114.552 62.3115 114.032 62.3115 113.392C62.3118 112.752 62.875 112.232 63.5695 112.232H117.428C118.122 112.232 118.685 112.752 118.685 113.392C118.686 114.032 118.122 114.552 117.428 114.552Z" fill="white"/>
<path fill-rule="evenodd" clip-rule="evenodd" d="M117.428 93.1482H63.5698C62.8754 93.1482 62.3115 92.6287 62.3115 91.9883C62.3118 91.3478 62.875 90.8282 63.5695 90.8282H117.428C118.122 90.8282 118.685 91.3478 118.685 91.9883C118.686 92.6287 118.122 93.1483 117.428 93.1482Z" fill="white"/>
<path fill-rule="evenodd" clip-rule="evenodd" d="M117.428 82.4446H63.5698C62.8754 82.4446 62.3115 81.9251 62.3115 81.2846C62.3118 80.6442 62.875 80.1246 63.5695 80.1246H117.428C118.122 80.1246 118.685 80.6442 118.685 81.2846C118.686 81.925 118.122 82.4446 117.428 82.4446Z" fill="white"/>
<path fill-rule="evenodd" clip-rule="evenodd" d="M117.429 68.5625H97.7183C97.0234 68.5625 96.46 68.043 96.46 67.4026C96.4603 66.7622 97.0234 66.2426 97.718 66.2426L117.429 66.2425C118.123 66.2425 118.687 66.7622 118.687 67.4026C118.687 68.0429 118.123 68.5626 117.429 68.5625Z" fill="white"/>
<path fill-rule="evenodd" clip-rule="evenodd" d="M117.429 60.1971H97.7183C97.0234 60.1971 96.46 59.6776 96.46 59.0372C96.4603 58.3968 97.0234 57.8772 97.718 57.8772L117.429 57.8771C118.123 57.8771 118.687 58.3968 118.687 59.0372C118.687 59.6776 118.123 60.1972 117.429 60.1971Z" fill="white"/>
<path fill-rule="evenodd" clip-rule="evenodd" d="M117.429 51.8291H97.7183C97.0234 51.8291 96.46 51.3095 96.46 50.6691C96.4603 50.0287 97.0234 49.5091 97.718 49.5091H117.429C118.123 49.5091 118.687 50.0287 118.687 50.6691C118.687 51.3094 118.123 51.8291 117.429 51.8291Z" fill="white"/>
<path fill-rule="evenodd" clip-rule="evenodd" d="M76.7334 55.5829C75.0783 55.5829 73.7303 56.8255 73.7303 58.354C73.7303 59.8805 75.0779 61.1231 76.7334 61.1231C78.3889 61.1231 79.7364 59.8805 79.7364 58.354C79.7368 56.8254 78.3889 55.5829 76.7334 55.5829ZM76.7334 63.4431C73.6891 63.4431 71.2144 61.1594 71.2144 58.354C71.2144 55.5466 73.6888 53.2629 76.7334 53.2629C79.7761 53.2629 82.2524 55.5466 82.2524 58.354C82.2528 61.1594 79.7756 63.4431 76.7334 63.4431Z" fill="white"/>
<path fill-rule="evenodd" clip-rule="evenodd" d="M68.8285 72.3368C68.1342 72.3368 67.5703 71.8173 67.5703 71.1769L67.5705 69.5738C67.5705 64.9136 71.6807 61.1235 76.7345 61.1235C79.1809 61.1235 81.4825 62.0016 83.2123 63.5965C84.9422 65.1936 85.8943 67.3142 85.8943 69.5718L85.8945 71.1748C85.8945 71.8153 85.3307 72.3349 84.6363 72.3349C83.9421 72.3349 83.3783 71.8153 83.3783 71.1748L83.3785 69.5717C83.3785 67.9344 82.6881 66.3939 81.4323 65.2379C80.179 64.0799 78.5101 63.4434 76.7345 63.4434C73.0679 63.4434 70.0863 66.1945 70.0863 69.5738L70.0865 71.1769C70.0865 71.8173 69.5229 72.3369 68.8285 72.3368Z" fill="white"/>
<path fill-rule="evenodd" clip-rule="evenodd" d="M65.1869 48.0553C64.9879 48.0553 64.826 48.2044 64.826 48.3876L64.8261 69.6825C64.8261 69.8657 64.9878 70.0148 65.1865 70.0148L88.2804 70.0147C88.4794 70.0147 88.6407 69.8658 88.6407 69.6825L88.6412 48.3875C88.6412 48.2043 88.4791 48.0553 88.2803 48.0553L65.1869 48.0553ZM88.2804 72.3348H65.1869C63.6011 72.3348 62.3101 71.1446 62.3101 69.6825L62.3101 48.3875C62.3101 46.9254 63.6008 45.7352 65.1865 45.7352L88.2804 45.7352C89.8662 45.7352 91.1567 46.9255 91.1567 48.3876L91.1571 69.6824C91.1571 71.1445 89.866 72.3348 88.2804 72.3348Z" fill="white"/>
<path fill-rule="evenodd" clip-rule="evenodd" d="M97.5411 128.297H116.171V123.338H97.5411V128.297ZM116.928 130.617H96.781C95.8134 130.617 95.0249 129.89 95.0249 128.997L95.0253 122.638C95.0253 121.745 95.8133 121.018 96.7809 121.018H116.929C117.898 121.018 118.686 121.745 118.686 122.638L118.687 128.997C118.687 129.89 117.898 130.617 116.928 130.617Z" fill="white"/>
<path fill-rule="evenodd" clip-rule="evenodd" d="M86.8101 124.231H79.0941C78.3998 124.231 77.8359 123.711 77.8359 123.071C77.8361 122.431 78.3994 121.911 79.0939 121.911H86.8101C87.505 121.911 88.0679 122.431 88.0679 123.071C88.0681 123.711 87.5046 124.231 86.8101 124.231Z" fill="white"/>
<path fill-rule="evenodd" clip-rule="evenodd" d="M86.8101 129.725H79.0941C78.3998 129.725 77.8359 129.205 77.8359 128.565C77.8361 127.922 78.3994 127.405 79.0939 127.405H86.8101C87.505 127.405 88.0679 127.922 88.0679 128.565C88.0681 129.205 87.5046 129.725 86.8101 129.725Z" fill="white"/>
<path fill-rule="evenodd" clip-rule="evenodd" d="M57.0877 39.8427C56.2076 39.8427 55.493 40.5013 55.493 41.3109L55.493 135.046C55.493 135.855 56.2072 136.514 57.0874 136.514H123.912C124.79 136.514 125.504 135.855 125.506 135.046L125.506 41.3107C125.506 40.5012 124.792 39.8426 123.914 39.8426L57.0877 39.8427ZM123.912 138.834H57.0877C54.8203 138.834 52.9771 137.134 52.9771 135.046V41.3107C52.9771 39.2223 54.8203 37.5226 57.0873 37.5226H123.914C126.179 37.5226 128.022 39.2224 128.022 41.3108L128.022 135.047C128.018 137.136 126.174 138.834 123.912 138.834Z" fill="white"/>
</svg>
