<svg width="181" height="181" viewBox="0 0 181 181" fill="none" xmlns="http://www.w3.org/2000/svg">
<circle cx="90.9459" cy="90.0543" r="90.0543" fill="#BF113B"/>
<path d="M51.6371 75.3256V88.6586L45.0171 81.9921L51.6371 75.3256Z" fill="white"/>
<path d="M136.871 81.9922L130.251 88.6586V75.3256L136.871 81.9922Z" fill="white"/>
<path d="M139.712 138.834H42.1665L68.9699 111.863C81.1089 99.639 100.79 99.6389 112.929 111.863L139.712 138.834Z" fill="white"/>
<path d="M66.1094 108.984L42.1719 133.089V84.8786C47.571 90.3155 60.2062 103.039 66.1094 108.984Z" fill="white"/>
<path d="M139.718 84.8782V133.088C134.319 127.652 121.684 114.928 115.781 108.983C148.585 75.9495 137.271 87.3429 139.718 84.8782Z" fill="white"/>
<path d="M126.209 56.4981H119.488C116.481 56.4981 114.039 54.0387 114.039 51.0104V41.2749L114.139 41.3968L126.108 56.3761L126.209 56.4981Z" fill="white"/>
<path d="M119.492 60.5699C114.265 60.5699 110.006 56.2814 110.006 51.0174V41.2818H61.1224C58.1151 41.2818 55.6729 43.7411 55.6729 46.7695V92.7237L69.1352 106.28C75.3315 101.321 82.9405 98.6382 90.9533 98.6382C98.966 98.6382 106.575 101.321 112.751 106.28C113.538 105.508 126.012 92.9473 126.213 92.744V60.5699H119.492ZM66.0875 52.8872H92.8706C94.2432 52.8872 95.3735 54.0051 95.3735 55.4075C95.3735 56.7895 94.2432 57.9277 92.8706 57.9277H66.0875C64.715 57.9277 63.5848 56.7895 63.5848 55.4075C63.5848 54.0051 64.715 52.8872 66.0875 52.8872ZM97.9165 87.9881H64.8361C63.9279 87.9881 63.1811 87.2361 63.1811 86.3214C63.1811 85.4068 63.9279 84.6548 64.8361 84.6548H97.9165C98.8247 84.6548 99.5715 85.4068 99.5715 86.3214C99.5715 87.2361 98.8247 87.9881 97.9165 87.9881ZM116.021 80.6305H64.8361C63.9279 80.6305 63.1811 79.8784 63.1811 78.9639C63.1811 78.0289 63.9279 77.2973 64.8361 77.2973H116.021C116.949 77.2973 117.676 78.0289 117.676 78.9639C117.676 79.8784 116.949 80.6305 116.021 80.6305ZM116.021 73.2527H64.8361C63.9279 73.2527 63.1811 72.5006 63.1811 71.586C63.1811 70.6714 63.9279 69.9194 64.8361 69.9194H116.021C116.949 69.9194 117.676 70.6714 117.676 71.586C117.676 72.5006 116.949 73.2527 116.021 73.2527ZM116.021 65.8951H64.8361C63.9279 65.8951 63.1811 65.143 63.1811 64.2285C63.1811 63.2935 63.9279 62.5618 64.8361 62.5618H116.021C116.949 62.5618 117.676 63.2935 117.676 64.2285C117.676 65.143 116.949 65.8951 116.021 65.8951Z" fill="white"/>
</svg>
